<svg id="svg" version="1.1" xmlns="http://www.w3.org/2000/svg" xmlns:xlink="http://www.w3.org/1999/xlink" width="400" height="400" viewBox="0, 0, 400,400"><g id="svgg"><path id="path0" d="M133.052 154.700 C 132.739 155.305,129.392 162.817,125.613 171.393 C 121.835 179.969,118.608 187.169,118.441 187.393 C 118.274 187.617,117.813 188.700,117.417 189.800 C 117.021 190.900,116.195 192.790,115.581 194.000 C 113.036 199.020,113.056 198.935,113.975 200.650 C 114.429 201.496,114.800 202.326,114.800 202.494 C 114.800 203.053,113.689 202.810,113.455 202.200 C 113.329 201.870,113.034 201.600,112.800 201.600 C 112.035 201.600,111.888 202.814,112.563 203.559 C 113.324 204.400,112.835 206.400,111.868 206.400 C 111.430 206.400,111.356 207.038,111.510 209.500 C 111.797 214.100,111.779 214.218,110.597 215.769 C 109.332 217.426,108.899 217.508,107.442 216.362 C 105.707 214.997,105.057 215.591,105.387 218.237 C 105.607 219.993,105.531 220.613,105.032 221.165 C 104.445 221.813,104.512 221.956,105.937 223.102 C 107.488 224.347,108.079 226.336,107.212 227.388 C 107.026 227.615,106.973 229.031,107.094 230.536 L 107.315 233.271 109.158 233.044 C 110.171 232.919,111.688 232.821,112.529 232.826 C 114.802 232.840,115.600 232.476,115.600 231.422 C 115.600 230.914,115.870 230.274,116.200 230.000 C 116.530 229.726,116.806 229.209,116.813 228.851 C 116.820 228.493,117.090 227.851,117.413 227.424 C 117.736 226.996,118.000 226.240,118.000 225.743 C 118.000 224.549,120.523 218.848,122.239 216.167 C 122.987 214.996,123.600 213.779,123.600 213.462 C 123.600 213.145,123.882 212.777,124.228 212.645 C 124.639 212.487,124.769 212.134,124.606 211.620 C 124.466 211.179,124.638 210.408,125.001 209.855 C 125.426 209.205,125.501 208.786,125.222 208.613 C 124.503 208.169,124.751 207.303,125.984 205.953 C 126.635 205.240,127.274 204.174,127.403 203.585 C 127.533 202.995,128.125 202.065,128.719 201.519 C 130.332 200.035,132.799 198.265,132.988 198.455 C 133.269 198.736,132.397 202.108,131.605 203.800 C 129.366 208.583,128.799 210.159,129.179 210.539 C 129.769 211.129,135.345 211.955,138.900 211.979 C 141.076 211.994,142.014 212.149,142.046 212.500 C 142.149 213.613,142.214 213.805,142.529 213.927 C 142.709 213.997,143.789 213.146,144.929 212.036 C 146.068 210.925,148.117 208.934,149.482 207.609 C 156.115 201.175,164.811 179.329,162.278 175.464 C 161.674 174.541,161.669 174.401,162.228 174.088 C 162.791 173.773,162.791 173.690,162.225 173.221 C 161.850 172.910,161.600 172.066,161.600 171.111 C 161.600 167.801,159.706 165.577,154.208 162.431 C 150.527 160.325,150.887 160.083,148.012 166.600 C 144.386 174.816,144.625 173.889,145.956 174.577 C 147.161 175.200,148.008 176.944,147.989 178.760 C 147.976 179.985,146.880 182.442,142.686 190.655 L 139.593 196.710 137.777 196.983 C 135.047 197.392,133.622 196.944,133.008 195.485 C 132.390 194.014,132.409 193.951,136.108 185.600 C 148.320 158.025,148.191 158.471,143.881 158.735 C 141.688 158.869,141.681 158.874,141.008 160.635 C 140.516 161.922,140.114 162.400,139.520 162.400 C 138.562 162.400,138.633 161.728,139.930 158.524 L 140.769 156.448 137.769 155.024 C 134.162 153.312,133.783 153.286,133.052 154.700 M151.381 169.461 C 152.052 169.858,152.086 170.015,151.619 170.577 C 151.125 171.173,150.975 171.134,149.938 170.141 C 148.166 168.443,148.996 168.053,151.381 169.461 M155.700 169.995 C 156.122 169.998,156.400 170.305,156.400 170.768 C 156.400 171.871,154.056 172.365,153.357 171.408 C 152.647 170.438,153.111 169.482,154.155 169.762 C 154.620 169.887,155.315 169.992,155.700 169.995 M158.200 171.800 C 158.200 172.234,157.885 172.650,157.500 172.724 C 156.976 172.825,156.800 172.593,156.800 171.800 C 156.800 171.007,156.976 170.775,157.500 170.876 C 157.885 170.950,158.200 171.366,158.200 171.800 M177.050 176.655 C 172.462 178.063,166.400 184.412,166.400 187.808 C 166.400 188.514,165.827 189.916,165.040 191.138 C 164.292 192.299,163.560 193.885,163.415 194.663 C 163.182 195.903,162.306 198.090,159.595 204.200 C 159.204 205.080,157.138 209.760,155.004 214.600 C 152.869 219.440,150.491 224.446,149.718 225.723 C 148.946 227.001,148.416 228.149,148.541 228.274 C 148.785 228.518,147.819 230.617,147.010 231.600 C 146.116 232.685,144.980 237.940,145.522 238.482 C 145.785 238.745,146.000 239.714,146.000 240.635 C 146.000 244.402,149.329 249.268,153.844 252.100 C 156.541 253.792,158.000 253.323,158.000 250.764 C 158.000 250.275,158.495 249.229,159.100 248.438 C 160.125 247.098,161.417 244.979,162.459 242.929 C 162.955 241.953,162.589 239.836,161.988 240.207 C 161.775 240.339,161.593 240.842,161.585 241.324 C 161.574 241.981,161.383 241.800,160.819 240.598 L 160.066 238.995 161.630 235.798 C 162.490 234.039,163.195 232.254,163.197 231.831 C 163.199 231.409,163.460 230.775,163.779 230.423 C 164.404 229.733,168.400 220.978,168.400 220.300 C 168.400 220.073,168.103 219.671,167.739 219.405 C 166.893 218.787,167.426 217.861,168.470 218.134 C 168.974 218.266,169.321 218.102,169.453 217.669 C 169.566 217.301,169.823 216.730,170.025 216.400 C 171.552 213.904,172.800 210.482,172.800 208.788 C 172.800 207.120,172.917 206.857,173.750 206.648 C 174.481 206.465,175.033 205.645,176.135 203.105 C 176.923 201.287,178.195 198.372,178.962 196.628 C 180.198 193.811,180.284 193.404,179.727 192.996 C 179.212 192.619,179.185 192.376,179.577 191.643 C 180.133 190.604,181.200 191.134,181.200 192.449 C 181.200 193.491,182.146 193.387,183.478 192.199 C 184.503 191.284,184.540 191.162,183.900 190.779 C 183.130 190.318,182.960 188.996,183.618 188.589 C 183.847 188.447,184.311 188.560,184.648 188.840 C 185.350 189.423,185.821 188.943,186.257 187.200 C 186.395 186.650,186.915 185.840,187.412 185.400 C 187.913 184.957,188.769 183.217,189.332 181.497 L 190.347 178.393 189.193 177.797 C 185.970 176.130,180.449 175.611,177.050 176.655 M193.380 181.787 C 193.061 182.550,192.800 183.362,192.800 183.591 C 192.800 183.821,192.187 184.881,191.437 185.947 C 188.849 189.629,187.551 193.200,188.800 193.200 C 189.020 193.200,189.200 193.020,189.200 192.800 C 189.200 191.855,190.360 192.511,190.771 193.688 C 191.153 194.784,191.104 195.134,190.441 196.030 C 189.487 197.320,189.352 197.930,189.755 199.119 C 190.120 200.199,189.454 201.200,188.370 201.200 C 187.938 201.200,187.382 201.734,187.014 202.500 C 186.671 203.215,185.673 204.573,184.795 205.517 C 183.086 207.357,182.884 208.149,183.813 209.376 C 185.097 211.074,183.790 211.368,181.927 209.800 C 180.391 208.508,179.398 208.461,179.796 209.700 C 180.854 212.996,180.321 218.757,178.778 220.719 C 178.315 221.308,178.000 222.328,178.000 223.240 C 178.000 224.340,177.784 224.887,177.234 225.182 C 176.455 225.599,175.600 228.525,175.600 230.774 C 175.600 231.508,175.283 232.117,174.700 232.500 C 173.326 233.405,170.513 240.248,171.117 241.216 C 171.735 242.205,170.882 242.801,170.195 241.861 C 169.552 240.982,168.284 241.023,167.445 241.951 C 166.844 242.615,166.836 242.728,167.383 242.938 C 168.046 243.193,168.229 244.611,167.645 244.972 C 167.450 245.093,167.068 244.923,166.796 244.596 C 166.040 243.684,165.775 243.859,165.179 245.662 C 164.878 246.576,164.209 247.716,163.693 248.194 C 162.470 249.328,160.665 254.990,161.346 255.555 C 163.359 257.226,170.809 258.026,174.427 256.960 C 178.691 255.703,184.400 249.705,184.400 246.481 C 184.400 246.064,186.085 242.230,188.144 237.961 C 194.447 224.894,195.770 221.482,194.683 221.105 C 194.417 221.013,193.426 220.899,192.480 220.851 C 190.528 220.754,188.800 220.194,188.800 219.659 C 188.800 218.199,192.717 218.195,193.098 219.654 C 193.328 220.532,195.646 220.709,196.316 219.900 C 197.880 218.011,204.258 200.400,205.232 195.283 C 206.476 188.744,195.632 176.396,193.380 181.787 M196.000 187.567 C 196.000 188.864,195.550 189.600,194.757 189.600 C 193.919 189.600,193.777 188.764,194.414 187.574 C 194.948 186.576,196.000 186.572,196.000 187.567 M220.790 193.026 C 220.576 193.590,220.400 194.500,220.400 195.047 C 220.400 195.594,220.141 197.248,219.824 198.721 C 218.218 206.186,216.638 215.985,216.007 222.400 C 215.758 224.930,215.299 227.810,214.988 228.800 C 213.939 232.133,212.156 246.200,212.603 247.610 C 212.813 248.271,213.214 248.400,215.056 248.400 C 217.555 248.400,218.241 249.751,215.791 249.846 C 213.703 249.927,213.600 249.981,213.600 251.000 C 213.600 251.622,213.373 252.000,213.000 252.000 C 212.647 252.000,212.400 251.635,212.400 251.114 C 212.400 250.343,212.328 250.305,211.842 250.814 C 211.197 251.492,210.000 259.794,210.000 263.591 C 210.000 265.403,209.808 266.349,209.336 266.871 C 208.805 267.457,208.664 268.504,208.636 272.052 L 208.600 276.499 213.535 278.694 C 219.420 281.311,219.007 281.561,220.006 274.772 C 220.973 268.196,221.007 266.800,220.200 266.800 C 219.375 266.800,219.444 266.282,220.563 264.073 C 221.246 262.725,221.828 260.198,222.563 255.386 C 223.133 251.654,224.051 245.630,224.603 242.000 C 225.155 238.370,226.969 227.300,228.635 217.400 C 230.301 207.500,231.756 198.770,231.870 198.000 L 232.076 196.600 228.538 194.870 C 226.592 193.919,224.550 192.887,224.000 192.576 C 222.422 191.686,221.237 191.852,220.790 193.026 M201.600 194.669 C 201.600 195.401,200.492 196.800,199.911 196.800 C 199.710 196.800,199.670 196.395,199.822 195.900 C 200.353 194.167,201.600 193.304,201.600 194.669 M216.118 194.500 C 215.908 194.775,214.156 198.600,212.223 203.000 C 210.290 207.400,208.017 212.558,207.171 214.463 C 206.326 216.368,205.512 218.438,205.363 219.063 C 205.214 219.688,204.863 220.470,204.582 220.800 C 204.301 221.130,203.770 222.480,203.402 223.800 C 203.033 225.120,202.134 227.190,201.404 228.400 C 200.673 229.610,199.802 231.652,199.466 232.938 C 199.131 234.224,198.413 235.946,197.871 236.765 C 196.179 239.321,194.531 242.909,193.997 245.200 C 193.715 246.410,193.060 247.909,192.542 248.531 C 192.024 249.153,191.600 249.997,191.600 250.407 C 191.600 250.817,191.405 251.273,191.167 251.420 C 190.548 251.803,189.159 255.095,188.754 257.136 C 188.565 258.091,187.958 259.409,187.405 260.067 C 186.179 261.525,186.085 263.046,187.200 263.400 C 188.343 263.763,188.189 264.611,186.799 265.600 C 185.808 266.306,185.644 266.643,185.856 267.528 C 186.206 268.991,186.282 269.031,187.183 268.216 C 188.212 267.284,189.200 267.692,189.200 269.049 C 189.200 270.088,189.226 270.101,189.978 269.420 C 190.917 268.570,193.905 269.466,195.120 270.962 C 195.783 271.779,198.400 272.004,198.400 271.243 C 198.400 271.075,198.967 270.081,199.660 269.035 C 200.353 267.989,201.238 266.023,201.627 264.666 C 202.015 263.310,203.589 259.320,205.124 255.800 C 208.180 248.791,209.198 244.826,210.001 236.800 C 210.254 234.270,210.901 229.950,211.438 227.200 C 213.377 217.273,213.598 216.079,215.001 208.012 C 216.395 199.995,217.125 194.000,216.708 194.000 C 216.592 194.000,216.327 194.225,216.118 194.500 M122.648 197.381 C 122.974 198.232,122.396 199.036,121.956 198.343 C 121.484 197.598,121.514 196.800,122.013 196.800 C 122.239 196.800,122.525 197.061,122.648 197.381 M242.126 201.532 C 241.676 201.821,233.200 220.845,233.200 221.566 C 233.200 222.126,233.719 222.121,234.285 221.555 C 235.177 220.663,235.522 221.396,234.917 222.900 C 234.466 224.023,234.002 224.480,233.066 224.723 C 231.466 225.137,230.380 226.970,230.247 229.481 C 230.191 230.536,229.489 235.360,228.688 240.200 C 226.079 255.951,223.600 272.550,223.600 274.269 C 223.600 277.114,225.152 274.336,231.229 260.614 C 238.151 244.983,237.852 245.833,237.027 244.161 C 235.575 241.218,236.158 239.350,237.763 241.800 C 238.698 243.227,238.937 243.086,240.132 240.407 C 241.389 237.591,241.463 236.800,240.470 236.800 C 237.034 236.800,235.883 227.978,239.107 226.353 C 239.813 225.997,240.668 225.475,241.008 225.194 C 241.520 224.768,241.722 224.810,242.200 225.441 C 243.151 226.697,242.948 227.947,241.746 228.249 L 240.692 228.514 241.604 229.002 C 244.221 230.403,245.033 229.345,250.002 218.062 C 252.487 212.418,254.598 207.510,254.693 207.155 C 255.035 205.872,248.374 203.786,247.315 204.845 C 246.716 205.444,245.916 204.898,246.175 204.066 C 246.542 202.885,243.239 200.818,242.126 201.532 M200.000 202.551 C 200.000 202.854,199.746 203.313,199.436 203.570 C 198.675 204.202,198.156 203.376,198.815 202.582 C 199.424 201.848,200.000 201.832,200.000 202.551 M121.527 205.932 C 121.643 207.137,121.584 207.220,120.875 206.840 C 119.431 206.067,119.323 204.213,120.737 204.481 C 121.162 204.561,121.446 205.083,121.527 205.932 M118.800 207.176 C 118.800 207.603,118.620 208.064,118.400 208.200 C 118.173 208.340,118.000 208.004,118.000 207.424 C 118.000 206.861,118.180 206.400,118.400 206.400 C 118.620 206.400,118.800 206.749,118.800 207.176 M117.089 209.336 C 119.674 209.985,119.618 210.411,116.561 213.364 C 114.133 215.711,112.813 216.384,113.341 215.008 C 113.449 214.727,113.340 214.300,113.098 214.058 C 112.779 213.739,112.850 213.407,113.359 212.846 C 114.013 212.123,114.014 212.048,113.384 211.695 C 112.917 211.434,112.793 211.053,112.981 210.461 C 113.338 209.334,114.365 208.331,114.852 208.632 C 115.065 208.764,116.072 209.081,117.089 209.336 M189.527 212.274 C 189.432 213.077,189.103 213.426,188.220 213.660 C 186.615 214.086,186.548 213.876,187.833 212.434 C 189.185 210.917,189.692 210.869,189.527 212.274 M182.386 212.774 C 182.908 213.749,182.914 214.117,182.402 213.801 C 181.760 213.404,181.112 212.000,181.572 212.000 C 181.792 212.000,182.158 212.348,182.386 212.774 M185.276 215.801 C 185.079 217.176,184.804 217.800,184.395 217.800 C 183.537 217.800,183.433 215.883,184.210 214.381 C 185.103 212.654,185.626 213.352,185.276 215.801 M108.000 214.351 C 108.000 214.544,108.231 214.894,108.513 215.128 C 109.134 215.643,110.220 215.079,109.828 214.445 C 109.503 213.919,108.000 213.842,108.000 214.351 M267.683 215.247 C 262.279 215.936,255.200 222.300,255.200 226.470 C 255.200 227.080,253.348 231.318,251.084 235.889 C 244.139 249.913,243.620 251.600,246.254 251.600 C 249.558 251.600,251.613 252.827,250.231 253.975 C 249.524 254.561,246.591 253.874,246.274 253.049 C 246.040 252.439,244.271 251.985,243.643 252.374 C 242.091 253.333,234.481 274.932,234.310 278.864 C 234.237 280.546,236.491 286.775,237.303 287.134 C 237.470 287.208,238.356 287.967,239.271 288.821 C 240.187 289.674,241.906 290.874,243.092 291.486 L 245.249 292.600 246.025 291.656 C 246.451 291.136,246.800 290.213,246.800 289.605 C 246.800 288.996,247.065 288.278,247.388 288.010 C 248.439 287.138,251.290 281.831,251.346 280.643 C 251.413 279.218,250.577 278.816,250.172 280.078 C 249.897 280.938,249.831 280.893,249.188 279.400 C 248.530 277.875,248.532 277.762,249.219 277.000 C 250.233 275.876,250.601 274.125,249.982 273.378 C 249.399 272.675,249.912 271.919,251.089 271.746 C 251.472 271.690,251.857 271.429,251.945 271.166 C 252.032 270.903,253.090 269.526,254.294 268.106 L 256.485 265.524 255.760 264.178 C 254.788 262.373,255.265 262.062,257.093 263.311 C 258.917 264.557,259.468 264.665,260.926 264.064 C 262.187 263.544,262.925 263.809,264.260 265.263 L 265.121 266.200 262.156 272.976 C 260.157 277.543,259.323 279.883,259.596 280.156 C 260.181 280.741,260.092 281.600,259.447 281.600 C 259.142 281.600,258.795 281.224,258.675 280.764 C 258.431 279.833,257.123 279.981,256.000 281.066 C 255.468 281.580,255.479 281.690,256.100 282.043 C 256.878 282.484,257.026 283.413,256.382 283.811 C 256.153 283.953,255.711 283.858,255.400 283.600 C 254.623 282.955,254.144 283.350,253.570 285.106 C 253.302 285.928,252.679 286.977,252.187 287.438 C 251.695 287.899,250.992 289.339,250.624 290.638 C 250.256 291.937,249.871 293.290,249.768 293.644 C 249.495 294.587,250.218 295.020,254.406 296.423 C 262.461 299.122,268.135 295.261,274.387 282.826 C 276.030 279.559,284.800 259.812,284.800 259.381 C 284.800 258.932,279.750 256.801,278.687 256.800 C 278.076 256.800,277.474 256.537,277.350 256.215 C 276.923 255.101,275.674 255.151,273.237 256.381 C 271.909 257.052,270.625 257.600,270.383 257.600 C 269.756 257.600,271.028 256.403,271.671 256.387 C 272.468 256.368,273.600 255.390,273.600 254.720 C 273.600 254.164,265.798 250.445,265.449 250.835 C 264.941 251.404,264.000 253.689,264.000 254.355 C 264.000 254.793,263.463 255.738,262.807 256.457 C 262.151 257.175,261.148 258.716,260.578 259.881 C 260.008 261.047,259.419 261.996,259.271 261.991 C 258.497 261.966,257.099 260.381,256.620 258.986 L 256.076 257.403 255.338 258.699 C 254.254 260.602,253.907 260.293,254.217 257.700 C 254.572 254.725,256.000 253.474,256.000 256.139 C 256.000 257.219,258.093 259.837,258.670 259.480 C 258.897 259.340,259.316 257.859,259.602 256.190 C 259.887 254.520,260.454 252.731,260.861 252.214 C 261.267 251.697,261.600 250.637,261.600 249.860 C 261.600 248.870,261.856 248.266,262.452 247.849 C 263.141 247.366,263.341 246.719,263.503 244.459 C 263.668 242.155,263.835 241.632,264.458 241.469 C 264.885 241.357,265.579 240.431,266.055 239.336 C 266.518 238.271,267.325 236.450,267.849 235.288 C 268.869 233.024,269.040 232.000,268.400 232.000 C 268.180 232.000,268.000 231.730,268.000 231.400 C 268.000 230.528,269.100 230.665,269.600 231.600 C 270.137 232.602,270.472 232.602,271.656 231.600 C 272.529 230.860,272.548 230.768,271.900 230.380 C 271.045 229.868,271.000 229.064,271.789 228.409 C 272.262 228.017,272.515 228.058,273.076 228.619 C 273.854 229.397,274.742 228.081,274.782 226.090 C 274.793 225.526,275.142 225.049,275.700 224.835 C 276.732 224.438,279.220 217.837,278.565 217.234 C 277.269 216.042,270.764 214.854,267.683 215.247 M222.520 219.500 C 222.890 220.162,220.812 224.000,220.084 224.000 C 218.486 224.000,217.668 222.910,218.910 222.436 C 220.211 221.939,220.679 221.018,220.028 220.234 C 219.676 219.809,219.689 219.629,220.083 219.470 C 220.884 219.149,222.334 219.167,222.520 219.500 M282.223 220.489 C 281.880 220.978,281.600 221.708,281.600 222.111 C 281.600 222.514,280.905 223.869,280.056 225.122 C 277.815 228.429,276.800 230.592,276.800 232.059 L 276.800 233.351 277.674 232.412 L 278.549 231.474 279.005 233.037 C 279.390 234.353,279.355 234.758,278.788 235.600 C 278.418 236.150,277.538 238.109,276.832 239.953 C 276.127 241.797,275.260 243.747,274.906 244.287 C 274.254 245.283,274.812 246.287,275.711 245.732 C 275.902 245.613,276.475 245.907,276.983 246.384 C 278.373 247.689,280.666 247.789,280.975 246.557 C 281.346 245.079,281.955 245.419,282.484 247.400 C 283.056 249.538,283.356 249.647,283.856 247.903 C 284.061 247.189,284.522 246.549,284.880 246.480 C 285.841 246.295,286.156 247.790,285.400 248.944 C 284.745 249.943,285.645 251.200,287.014 251.200 C 287.850 251.200,290.800 246.376,290.800 245.008 C 290.800 244.665,291.238 243.690,291.773 242.843 C 293.309 240.409,294.523 235.976,294.017 234.645 C 293.788 234.042,293.600 232.834,293.600 231.961 C 293.600 231.060,293.167 229.519,292.600 228.400 C 292.050 227.315,291.600 226.240,291.600 226.011 C 291.600 225.424,287.691 221.667,285.908 220.542 C 284.043 219.365,283.021 219.350,282.223 220.489 M103.120 222.265 C 102.373 223.093,102.720 224.172,103.658 223.939 C 104.042 223.844,104.154 223.439,104.010 222.656 C 103.807 221.548,103.779 221.535,103.120 222.265 M284.546 226.605 C 284.848 227.390,284.020 229.200,283.359 229.200 C 282.508 229.200,282.296 228.418,282.810 227.176 C 283.336 225.907,284.173 225.631,284.546 226.605 M110.159 228.854 C 111.292 229.370,111.861 230.400,111.013 230.400 C 109.894 230.400,108.400 229.606,108.400 229.010 C 108.400 228.282,108.822 228.245,110.159 228.854 M240.000 229.576 C 240.000 230.029,240.180 230.400,240.400 230.400 C 240.620 230.400,240.800 230.141,240.800 229.824 C 240.800 229.507,240.620 229.136,240.400 229.000 C 240.180 228.864,240.000 229.123,240.000 229.576 M104.447 229.971 C 104.046 230.219,104.069 230.341,104.554 230.527 C 104.895 230.658,105.273 230.605,105.394 230.410 C 105.709 229.900,105.054 229.596,104.447 229.971 M99.189 231.014 C 98.739 231.556,98.737 231.807,99.179 232.514 C 99.559 233.124,99.581 233.406,99.254 233.515 C 98.424 233.792,98.735 234.910,99.582 234.689 C 100.258 234.512,100.332 234.640,100.132 235.642 C 99.842 237.090,100.169 237.104,101.412 235.700 C 102.130 234.889,102.327 234.311,102.161 233.500 C 101.862 232.036,102.996 231.530,103.848 232.747 C 104.542 233.738,105.416 233.858,105.742 233.006 C 106.044 232.219,105.084 231.757,102.400 231.398 C 101.190 231.236,100.094 230.936,99.965 230.733 C 99.835 230.529,99.486 230.655,99.189 231.014 M290.000 234.492 C 290.000 235.047,288.803 236.400,288.311 236.400 C 287.899 236.400,288.291 234.859,288.894 234.104 C 289.331 233.558,290.000 233.793,290.000 234.492 M151.200 237.367 C 151.200 238.373,150.729 239.200,150.157 239.200 C 149.468 239.200,149.446 238.635,150.096 237.595 C 150.676 236.666,151.200 236.558,151.200 237.367 M157.015 244.024 C 157.395 244.640,156.403 246.800,155.739 246.800 C 154.838 246.800,154.682 245.752,155.416 244.632 C 156.142 243.523,156.598 243.350,157.015 244.024 M213.476 257.707 C 213.358 258.589,213.003 259.568,212.687 259.884 C 211.800 260.772,211.400 257.283,212.279 256.313 C 213.206 255.288,213.721 255.887,213.476 257.707 M220.839 258.247 C 221.757 259.353,217.756 262.160,216.614 261.211 C 215.532 260.314,215.884 259.600,217.409 259.600 C 218.523 259.600,218.912 259.391,219.273 258.600 C 219.805 257.431,220.106 257.363,220.839 258.247 M273.892 258.924 C 273.624 259.728,272.800 259.669,272.800 258.846 C 272.800 258.271,272.985 258.096,273.417 258.262 C 273.756 258.392,273.970 258.690,273.892 258.924 M251.472 261.005 C 250.029 262.581,249.315 262.402,249.987 260.634 C 250.226 260.006,250.689 259.600,251.166 259.600 C 251.599 259.600,252.086 259.384,252.250 259.120 C 252.453 258.791,252.592 258.777,252.692 259.077 C 252.772 259.317,252.223 260.185,251.472 261.005 M264.931 261.400 C 264.893 261.620,264.583 261.976,264.242 262.191 C 263.502 262.658,262.557 261.917,262.993 261.212 C 263.331 260.664,265.030 260.828,264.931 261.400 M240.800 270.201 C 240.300 271.135,239.200 271.599,239.200 270.875 C 239.200 270.368,240.853 268.720,241.107 268.974 C 241.232 269.099,241.094 269.651,240.800 270.201 M194.390 273.826 C 193.751 275.507,193.950 275.883,194.800 274.600 C 195.692 273.253,195.790 272.800,195.190 272.800 C 194.965 272.800,194.605 273.262,194.390 273.826 M240.000 276.524 C 240.000 276.811,239.742 277.396,239.427 277.824 C 238.575 278.978,237.798 278.066,238.626 276.884 C 239.315 275.900,240.000 275.721,240.000 276.524 M245.370 284.694 C 244.852 286.166,243.600 286.423,243.600 285.058 C 243.600 283.798,244.729 282.569,245.332 283.172 C 245.617 283.457,245.629 283.956,245.370 284.694 " stroke="none" fill="#f11404" fill-rule="evenodd"></path><path id="path1" d="M0.000 96.184 L 0.000 192.369 3.500 192.484 L 7.000 192.600 7.000 222.400 L 7.000 252.200 3.500 252.316 L 0.000 252.431 0.000 326.216 L 0.000 400.000 200.000 400.000 L 400.000 400.000 400.000 337.816 L 400.000 275.632 396.700 275.516 L 393.400 275.400 393.400 245.600 L 393.400 215.800 396.700 215.684 L 400.000 215.568 400.000 107.784 L 400.000 0.000 200.000 0.000 L 0.000 0.000 0.000 96.184 M138.500 154.531 C 140.900 155.633,141.600 156.140,141.600 156.777 C 141.600 157.528,141.841 157.600,144.371 157.600 C 148.199 157.600,148.674 158.099,147.528 160.916 C 147.061 162.062,146.452 163.810,146.174 164.800 C 145.896 165.790,142.953 172.779,139.634 180.331 C 132.420 196.748,132.563 196.000,136.620 196.000 C 139.119 196.000,140.302 194.349,144.214 185.400 C 144.599 184.520,145.348 182.900,145.879 181.800 C 147.379 178.689,146.976 175.397,145.061 175.121 C 144.009 174.970,144.042 173.767,145.160 171.400 C 145.576 170.520,146.186 169.170,146.515 168.400 C 150.442 159.204,150.145 159.607,152.273 160.585 C 156.801 162.665,158.067 163.378,158.429 164.054 C 158.649 164.464,159.058 164.800,159.339 164.800 C 160.480 164.800,162.800 169.123,162.800 171.249 C 162.800 171.882,162.968 172.400,163.173 172.400 C 163.752 172.400,164.091 173.908,163.678 174.646 C 163.446 175.060,163.464 175.816,163.725 176.666 C 164.029 177.657,164.000 178.752,163.616 180.712 C 163.013 183.797,162.315 185.720,159.558 191.900 C 159.141 192.835,158.419 194.455,157.953 195.500 C 157.487 196.545,156.767 198.092,156.353 198.938 C 155.939 199.784,155.600 200.662,155.600 200.889 C 155.600 201.861,152.078 206.421,149.255 209.104 C 145.578 212.600,145.924 212.253,144.232 214.128 C 142.689 215.838,141.200 215.699,141.200 213.847 C 141.200 212.960,141.064 212.919,137.900 212.860 C 132.614 212.760,128.000 211.747,128.000 210.685 C 128.000 210.391,128.360 209.405,128.800 208.494 C 129.240 207.584,129.600 206.312,129.600 205.668 C 129.600 205.025,129.889 204.258,130.242 203.965 C 131.095 203.257,131.719 201.559,131.284 201.124 C 130.790 200.630,128.885 202.523,128.555 203.836 C 128.403 204.444,127.795 205.674,127.206 206.570 C 126.616 207.467,126.099 208.650,126.058 209.200 C 126.016 209.750,125.941 210.799,125.891 211.532 C 125.841 212.264,125.485 213.094,125.100 213.376 C 124.715 213.658,124.400 214.078,124.400 214.311 C 124.400 214.543,124.259 214.793,124.086 214.867 C 123.775 214.999,121.496 219.541,120.207 222.600 C 119.836 223.480,119.391 224.476,119.217 224.813 C 119.044 225.150,118.772 226.016,118.614 226.738 C 118.455 227.459,117.895 228.803,117.368 229.725 C 116.841 230.646,116.407 231.709,116.405 232.086 C 116.398 233.085,114.968 233.693,112.640 233.688 C 111.518 233.685,110.372 233.869,110.094 234.095 C 109.807 234.330,108.823 234.402,107.812 234.264 C 106.728 234.115,105.932 234.186,105.772 234.445 C 105.628 234.679,105.159 234.778,104.730 234.666 C 104.185 234.523,103.508 234.933,102.476 236.030 C 100.860 237.748,99.200 238.154,99.200 236.833 C 99.200 236.412,98.712 235.711,98.115 235.277 C 97.212 234.619,97.115 234.385,97.532 233.881 C 97.810 233.547,97.928 232.852,97.796 232.325 C 97.348 230.543,100.316 228.163,100.945 229.800 C 101.270 230.648,102.545 230.544,103.400 229.600 C 103.798 229.160,104.546 228.800,105.062 228.800 C 105.578 228.800,106.002 228.575,106.005 228.300 C 106.008 228.025,106.119 227.397,106.251 226.905 C 106.425 226.255,106.286 225.937,105.745 225.746 C 103.971 225.118,101.630 223.973,101.417 223.628 C 101.021 222.987,102.612 220.600,103.434 220.600 C 104.559 220.600,104.724 220.145,104.342 218.101 C 103.979 216.159,104.620 214.800,105.898 214.800 C 106.214 214.800,106.788 214.410,107.174 213.933 C 107.684 213.304,108.277 213.081,109.338 213.121 C 111.019 213.184,111.038 213.109,110.398 208.800 C 110.039 206.383,110.072 206.150,110.866 205.487 C 111.620 204.858,111.660 204.660,111.206 203.812 C 110.760 202.978,110.807 202.654,111.559 201.380 C 112.035 200.572,112.324 199.590,112.199 199.198 C 112.075 198.805,112.249 198.208,112.586 197.871 C 112.924 197.533,113.200 196.814,113.200 196.271 C 113.200 195.729,113.460 195.186,113.779 195.063 C 114.470 194.798,116.256 191.025,116.767 188.747 C 116.968 187.854,117.507 186.724,117.966 186.236 C 118.425 185.748,118.800 185.210,118.800 185.041 C 118.800 184.700,121.449 178.520,123.790 173.400 C 124.293 172.300,124.996 170.725,125.352 169.900 C 125.709 169.075,126.291 167.725,126.648 166.900 C 127.004 166.075,127.705 164.500,128.205 163.400 C 128.705 162.300,129.390 160.770,129.727 160.000 C 133.536 151.296,132.655 151.846,138.500 154.531 M183.837 175.390 C 185.137 175.535,186.560 175.803,187.000 175.986 C 190.746 177.544,190.800 177.587,190.800 179.010 C 190.800 180.807,189.010 185.525,187.845 186.798 C 187.002 187.718,185.204 191.181,185.197 191.896 C 185.192 192.437,182.577 194.000,181.675 194.000 C 181.194 194.000,180.800 194.175,180.800 194.388 C 180.800 194.602,180.370 195.727,179.845 196.888 C 179.319 198.050,178.492 199.900,178.007 201.000 C 175.989 205.574,175.081 207.184,174.400 207.400 C 173.887 207.563,173.680 208.032,173.680 209.030 C 173.680 210.556,172.298 214.369,171.132 216.062 C 170.729 216.646,170.400 217.465,170.400 217.882 C 170.400 218.299,170.238 218.811,170.041 219.020 C 169.843 219.229,169.189 220.660,168.588 222.200 C 167.986 223.740,166.618 226.835,165.547 229.078 C 164.476 231.322,163.600 233.336,163.600 233.555 C 163.600 233.773,163.060 234.993,162.400 236.265 C 161.098 238.775,160.822 240.012,161.733 239.256 C 162.583 238.550,163.609 239.581,163.668 241.201 C 163.721 242.667,162.137 246.257,161.031 247.174 C 160.684 247.462,160.400 247.924,160.400 248.200 C 160.400 248.476,160.142 248.917,159.826 249.179 C 159.510 249.441,159.132 250.228,158.986 250.928 C 158.318 254.140,156.910 254.695,153.687 253.019 C 149.166 250.668,145.200 245.133,145.200 241.176 C 145.200 240.294,144.947 239.173,144.637 238.686 C 143.933 237.579,144.876 233.573,146.540 230.595 C 147.123 229.552,147.600 228.445,147.600 228.134 C 147.600 227.459,149.007 224.632,150.049 223.212 C 150.458 222.656,152.024 219.410,153.529 216.000 C 156.888 208.392,157.490 207.032,158.400 205.000 C 158.794 204.120,159.384 202.770,159.711 202.000 C 160.038 201.230,160.573 199.970,160.901 199.200 C 161.228 198.430,161.723 196.990,161.999 196.000 C 162.648 193.680,164.232 190.151,164.777 189.814 C 165.010 189.670,165.200 189.138,165.200 188.630 C 165.200 186.144,169.097 180.390,172.473 177.891 C 174.570 176.339,179.662 174.623,181.037 175.005 C 181.278 175.072,182.538 175.245,183.837 175.390 M197.250 180.504 C 199.493 181.640,204.000 185.573,204.000 186.395 C 204.000 186.734,204.555 188.150,205.234 189.541 C 206.779 192.708,206.427 198.217,204.425 202.200 C 204.203 202.640,203.400 204.890,202.639 207.200 C 201.089 211.906,198.686 217.644,196.833 221.066 C 196.155 222.318,195.600 223.575,195.600 223.859 C 195.600 224.144,195.170 225.327,194.645 226.488 C 194.119 227.650,193.290 229.500,192.802 230.600 C 190.618 235.524,189.012 238.724,187.949 240.272 C 187.317 241.192,186.800 242.105,186.800 242.301 C 186.800 242.497,186.460 243.356,186.044 244.211 C 185.628 245.066,185.370 245.977,185.469 246.236 C 186.230 248.220,180.617 255.257,176.845 257.047 C 173.483 258.642,167.468 258.918,164.200 257.626 C 160.984 256.354,160.200 255.749,160.249 254.575 C 160.324 252.781,162.327 247.526,163.158 246.945 C 163.563 246.661,163.995 245.924,164.119 245.307 C 164.452 243.641,166.930 240.729,168.438 240.232 C 169.599 239.849,169.945 239.348,171.501 235.800 C 172.466 233.600,173.586 231.530,173.990 231.200 C 174.393 230.870,174.820 229.880,174.939 229.000 C 175.354 225.924,175.689 224.843,176.442 224.162 C 176.932 223.719,177.200 222.940,177.200 221.961 C 177.200 220.897,177.439 220.278,178.002 219.883 C 179.239 219.017,179.789 215.292,179.211 211.707 C 178.656 208.271,178.812 207.891,180.631 208.232 C 181.706 208.434,182.000 208.357,182.000 207.875 C 182.000 207.538,182.540 206.722,183.200 206.062 C 183.860 205.402,184.400 204.687,184.400 204.474 C 184.400 204.260,184.663 203.985,184.984 203.862 C 185.305 203.738,185.721 203.045,185.909 202.320 C 186.131 201.462,186.660 200.793,187.425 200.401 C 188.071 200.071,188.661 199.769,188.737 199.730 C 188.812 199.692,188.693 199.338,188.473 198.944 C 188.028 198.150,189.171 195.410,190.072 195.109 C 190.343 195.019,189.853 194.597,188.983 194.172 C 187.110 193.258,186.725 191.821,187.891 190.099 C 188.301 189.495,189.059 188.149,189.576 187.110 C 190.093 186.070,190.850 184.917,191.258 184.548 C 191.666 184.178,192.000 183.388,192.000 182.792 C 192.000 179.969,194.253 178.987,197.250 180.504 M225.611 192.244 C 226.709 192.818,227.699 193.436,227.811 193.618 C 227.924 193.800,229.047 194.447,230.308 195.056 C 233.473 196.584,233.375 196.002,231.825 204.000 C 231.463 205.870,231.080 208.030,230.974 208.800 C 230.868 209.570,230.505 211.730,230.168 213.600 C 229.831 215.470,229.387 218.080,229.181 219.400 C 228.975 220.720,228.622 222.880,228.397 224.200 C 228.171 225.520,227.897 227.230,227.787 228.000 C 227.677 228.770,227.419 230.300,227.213 231.400 C 227.008 232.500,226.620 235.110,226.351 237.200 C 226.082 239.290,225.734 241.180,225.578 241.400 C 225.421 241.620,225.276 242.757,225.253 243.928 C 225.231 245.098,225.106 246.228,224.975 246.440 C 224.743 246.815,223.407 255.414,222.961 259.400 C 222.736 261.406,222.614 261.814,221.467 264.394 C 220.906 265.654,220.906 265.854,221.469 266.476 C 221.916 266.971,222.021 267.591,221.840 268.682 C 221.702 269.517,221.497 271.100,221.384 272.200 C 221.271 273.300,221.058 274.650,220.910 275.200 C 220.763 275.750,220.620 276.380,220.593 276.600 C 219.912 282.119,219.826 282.186,215.664 280.393 C 209.177 277.598,207.680 276.773,207.469 275.876 C 207.109 274.339,207.808 267.507,208.448 266.311 C 208.669 265.898,208.935 264.264,209.039 262.680 C 209.438 256.593,210.462 250.215,211.140 249.600 C 211.645 249.141,211.804 248.250,211.817 245.800 C 211.842 240.961,213.280 230.341,214.212 228.111 C 214.535 227.336,214.800 225.857,214.800 224.825 C 214.800 223.792,214.972 221.969,215.182 220.773 C 215.392 219.578,215.654 217.790,215.765 216.800 C 216.028 214.450,217.466 205.504,217.951 203.200 C 218.623 200.008,219.120 197.459,219.588 194.814 C 220.298 190.799,221.702 190.200,225.611 192.244 M217.909 193.203 C 217.994 193.975,216.289 206.201,215.428 211.000 C 214.752 214.771,213.848 219.687,213.589 221.000 C 212.745 225.285,212.327 227.470,212.210 228.200 C 212.140 228.640,211.900 230.080,211.678 231.400 C 211.455 232.720,211.080 235.420,210.843 237.400 C 210.008 244.381,209.622 246.832,209.208 247.800 C 209.019 248.240,208.764 249.188,208.641 249.907 C 208.518 250.625,207.963 252.206,207.409 253.419 C 206.854 254.631,206.400 255.720,206.400 255.837 C 206.400 255.954,205.882 257.164,205.249 258.525 C 202.804 263.782,202.318 264.997,202.111 266.375 C 201.993 267.159,201.498 268.250,201.012 268.800 C 200.525 269.350,199.893 270.395,199.606 271.121 C 199.233 272.069,198.762 272.508,197.943 272.671 C 197.314 272.797,196.800 273.052,196.800 273.238 C 196.800 274.004,194.196 277.200,193.572 277.200 C 192.153 277.200,192.052 276.280,193.199 273.800 C 194.451 271.093,194.449 271.083,192.731 270.225 C 191.118 269.421,190.936 269.436,190.684 270.400 C 190.347 271.690,188.852 271.415,188.236 269.949 C 187.919 269.196,187.599 268.878,187.431 269.149 C 186.900 270.010,185.233 269.669,184.976 268.648 C 184.562 266.996,184.945 265.446,185.883 264.981 L 186.766 264.543 185.917 263.694 L 185.068 262.846 186.291 260.323 C 186.964 258.935,187.644 257.370,187.802 256.843 C 187.961 256.317,188.790 254.386,189.645 252.552 C 190.500 250.718,191.200 249.055,191.200 248.858 C 191.200 248.660,191.458 248.283,191.774 248.021 C 192.090 247.759,192.473 246.978,192.625 246.285 C 192.777 245.593,193.044 244.750,193.217 244.413 C 193.391 244.076,193.839 243.080,194.213 242.200 C 195.615 238.903,197.238 235.624,197.568 235.420 C 197.756 235.304,198.036 234.532,198.190 233.704 C 198.345 232.877,198.605 232.020,198.769 231.800 C 198.932 231.580,199.308 230.770,199.603 230.000 C 199.898 229.230,200.468 228.122,200.870 227.538 C 201.271 226.954,201.600 226.270,201.600 226.018 C 201.600 225.457,204.598 218.311,207.481 212.000 C 208.872 208.954,209.798 206.877,210.602 205.000 C 210.979 204.120,211.538 202.877,211.844 202.239 C 212.150 201.600,212.400 200.835,212.400 200.539 C 212.400 200.242,212.580 200.000,212.800 200.000 C 213.020 200.000,213.200 199.728,213.200 199.395 C 213.200 199.062,213.373 198.477,213.584 198.095 C 213.795 197.713,214.538 196.176,215.235 194.681 C 216.565 191.828,217.690 191.206,217.909 193.203 M244.764 201.415 C 245.955 201.969,247.155 202.732,247.431 203.111 C 247.708 203.489,248.056 203.678,248.203 203.530 C 248.765 202.968,256.000 206.102,256.000 206.908 C 256.000 207.135,255.531 208.328,254.958 209.560 C 254.385 210.792,253.760 212.160,253.570 212.600 C 251.616 217.117,249.917 220.984,249.090 222.800 C 248.539 224.010,247.686 225.945,247.195 227.100 C 246.704 228.255,246.099 229.202,245.851 229.204 C 245.603 229.206,244.500 229.650,243.400 230.191 C 240.125 231.802,238.444 231.278,238.940 228.799 C 239.072 228.140,239.025 227.600,238.836 227.600 C 238.231 227.600,237.909 231.912,238.403 233.408 C 239.011 235.253,240.194 235.910,241.226 234.977 C 241.846 234.415,242.096 234.382,242.592 234.794 C 243.546 235.585,243.326 236.315,240.001 243.400 C 239.588 244.280,238.988 245.630,238.668 246.400 C 238.348 247.170,237.617 248.840,237.043 250.112 C 236.469 251.383,236.000 252.492,236.000 252.576 C 236.000 252.660,235.388 254.050,234.639 255.664 C 233.891 257.279,232.382 260.670,231.285 263.200 C 230.189 265.730,228.731 269.020,228.046 270.510 C 227.361 272.001,226.800 273.371,226.800 273.556 C 226.800 274.486,225.064 276.000,223.998 276.000 C 222.883 276.000,222.049 274.891,222.553 274.077 C 222.665 273.895,222.958 272.229,223.205 270.373 C 223.451 268.518,223.821 265.830,224.028 264.400 C 224.234 262.970,224.579 260.450,224.795 258.800 C 225.010 257.150,225.385 254.540,225.627 253.000 C 226.622 246.682,226.822 245.319,227.010 243.600 C 227.119 242.610,227.372 241.170,227.572 240.400 C 228.059 238.531,229.263 231.005,229.396 229.000 C 229.532 226.955,230.758 224.747,232.130 224.078 C 233.330 223.493,233.493 222.998,232.600 222.655 C 231.784 222.342,231.838 221.904,233.000 219.363 C 233.550 218.160,234.000 217.109,234.000 217.028 C 234.000 216.946,234.720 215.335,235.600 213.448 C 236.480 211.561,237.200 209.941,237.200 209.848 C 237.200 209.755,237.920 208.135,238.800 206.248 C 239.680 204.361,240.400 202.717,240.400 202.595 C 240.400 200.609,242.066 200.159,244.764 201.415 M114.056 210.133 C 113.729 210.526,113.754 210.858,114.151 211.401 C 114.447 211.806,114.598 212.486,114.486 212.914 C 114.314 213.572,114.399 213.628,115.041 213.282 C 115.903 212.818,117.824 210.856,117.568 210.702 C 115.491 209.447,114.727 209.324,114.056 210.133 M275.553 215.040 C 276.349 215.385,277.596 215.924,278.324 216.238 C 279.621 216.798,279.642 216.847,279.368 218.673 C 279.001 221.122,277.337 225.172,276.252 226.257 C 275.778 226.731,275.143 227.812,274.841 228.660 C 273.981 231.070,272.931 232.284,271.095 232.988 C 269.511 233.597,269.311 233.853,268.039 236.920 C 267.291 238.724,266.247 240.784,265.721 241.498 C 265.133 242.293,264.670 243.608,264.523 244.898 C 264.392 246.054,263.983 247.450,263.615 248.000 C 263.246 248.550,262.721 249.780,262.447 250.733 C 262.172 251.686,261.600 253.036,261.176 253.733 C 260.686 254.537,260.419 255.658,260.448 256.800 C 260.473 257.790,260.581 258.255,260.689 257.833 C 260.796 257.411,261.405 256.511,262.040 255.833 C 262.676 255.155,263.197 254.336,263.198 254.013 C 263.211 250.066,264.768 249.483,269.649 251.600 C 271.678 252.480,273.667 253.200,274.069 253.200 C 274.471 253.200,274.800 253.367,274.800 253.571 C 274.800 253.933,277.587 255.341,280.400 256.401 C 281.170 256.691,281.971 257.079,282.180 257.264 C 282.389 257.449,282.839 257.601,283.180 257.602 C 284.451 257.606,286.141 259.375,285.684 260.223 C 285.212 261.098,284.383 262.960,281.509 269.600 C 277.401 279.089,274.205 285.826,273.648 286.170 C 273.414 286.315,272.907 287.101,272.524 287.917 C 269.884 293.528,264.490 297.798,259.444 298.269 C 255.085 298.676,247.695 295.127,248.711 293.114 C 248.965 292.611,249.554 291.030,250.021 289.600 C 250.487 288.170,251.145 286.692,251.482 286.316 C 251.819 285.940,252.499 284.761,252.992 283.697 C 254.157 281.181,255.595 279.661,257.091 279.362 C 258.065 279.167,258.467 278.731,259.211 277.061 C 261.628 271.635,262.128 270.501,262.677 269.200 C 263.002 268.430,263.444 267.468,263.661 267.062 C 264.431 265.617,261.070 263.792,260.208 265.187 C 260.077 265.400,259.436 265.467,258.784 265.337 C 258.075 265.195,257.600 265.268,257.600 265.519 C 257.600 265.750,256.907 266.627,256.061 267.469 C 255.214 268.311,254.027 269.855,253.423 270.900 C 252.780 272.012,252.037 272.800,251.631 272.800 C 251.091 272.800,250.977 273.061,251.112 273.983 C 251.225 274.748,250.976 275.667,250.410 276.583 L 249.535 278.000 250.487 278.000 C 253.305 278.000,252.946 282.029,249.754 286.222 C 249.243 286.894,248.447 288.334,247.986 289.422 C 246.522 292.878,246.299 293.200,245.373 293.200 C 244.206 293.200,240.125 291.050,238.600 289.632 C 237.940 289.018,237.102 288.412,236.738 288.285 C 236.373 288.158,235.946 287.457,235.788 286.727 C 235.630 285.997,234.983 284.370,234.350 283.111 C 233.076 280.576,232.968 279.256,233.771 276.000 C 235.559 268.745,237.516 263.527,242.399 253.000 C 243.114 251.460,243.833 249.840,243.998 249.400 C 244.391 248.353,245.897 245.004,246.847 243.062 C 247.261 242.216,247.600 241.383,247.600 241.210 C 247.600 240.841,251.987 231.441,253.416 228.746 C 253.957 227.726,254.400 226.517,254.400 226.060 C 254.400 223.884,258.493 218.394,261.604 216.397 C 265.352 213.992,271.708 213.374,275.553 215.040 M286.116 219.657 C 287.042 220.128,288.686 221.388,289.768 222.457 C 290.850 223.525,291.885 224.400,292.068 224.400 C 292.251 224.400,292.402 224.715,292.404 225.100 C 292.406 225.485,292.850 226.700,293.391 227.800 C 293.932 228.900,294.381 230.471,294.387 231.292 C 294.394 232.112,294.690 233.509,295.045 234.396 C 295.480 235.484,295.562 236.170,295.297 236.505 C 295.080 236.777,294.668 237.990,294.382 239.200 C 293.831 241.522,292.585 244.000,291.967 244.000 C 291.765 244.000,291.600 244.679,291.600 245.509 C 291.600 246.578,291.267 247.423,290.457 248.409 C 289.828 249.174,289.191 250.189,289.041 250.664 C 288.502 252.377,287.920 252.438,284.980 251.092 C 283.451 250.391,282.060 249.597,281.889 249.326 C 281.719 249.055,281.337 248.926,281.041 249.040 C 280.745 249.153,280.255 249.004,279.952 248.709 C 279.648 248.413,278.975 248.142,278.455 248.107 C 277.936 248.072,277.216 247.787,276.855 247.475 C 276.495 247.163,275.750 246.795,275.200 246.657 C 273.017 246.111,272.919 245.825,274.107 243.479 C 274.708 242.292,275.200 241.192,275.200 241.034 C 275.200 240.877,275.650 239.765,276.200 238.563 C 276.750 237.360,277.200 236.261,277.200 236.120 C 277.200 235.978,277.489 235.544,277.841 235.154 C 278.440 234.493,278.387 234.405,277.041 233.843 C 275.352 233.137,275.072 231.493,276.329 229.662 C 276.730 229.078,277.364 227.934,277.739 227.119 C 278.113 226.305,278.837 225.135,279.348 224.519 C 279.858 223.904,280.397 222.779,280.544 222.021 C 281.181 218.740,282.889 218.015,286.116 219.657 M240.600 226.800 C 240.464 227.020,240.723 227.200,241.176 227.200 C 241.629 227.200,242.000 227.020,242.000 226.800 C 242.000 226.580,241.741 226.400,241.424 226.400 C 241.107 226.400,240.736 226.580,240.600 226.800 M371.913 247.855 C 372.802 248.094,372.822 248.211,372.713 252.550 L 372.600 257.000 368.458 257.114 C 365.748 257.189,364.124 257.069,363.758 256.765 C 362.917 256.068,362.975 249.082,363.829 248.229 C 364.480 247.577,369.934 247.325,371.913 247.855 " stroke="none" fill="#048304" fill-rule="evenodd"></path><path id="path2" d="M0.000 222.400 L 0.000 252.431 3.500 252.316 L 7.000 252.200 7.000 222.400 L 7.000 192.600 3.500 192.484 L 0.000 192.369 0.000 222.400 M393.384 216.100 C 393.279 216.375,393.240 229.830,393.297 246.000 L 393.400 275.400 396.700 275.516 L 400.000 275.632 400.000 245.616 L 400.000 215.600 396.787 215.600 C 394.586 215.600,393.515 215.757,393.384 216.100 " stroke="none" fill="#040504" fill-rule="evenodd"></path><path id="path3" d="M131.735 155.518 C 130.968 157.213,130.064 159.230,129.727 160.000 C 129.390 160.770,128.705 162.300,128.205 163.400 C 127.705 164.500,127.004 166.075,126.648 166.900 C 126.291 167.725,125.709 169.075,125.352 169.900 C 124.996 170.725,124.293 172.300,123.790 173.400 C 121.449 178.520,118.800 184.700,118.800 185.041 C 118.800 185.210,118.425 185.748,117.966 186.236 C 117.507 186.724,116.968 187.854,116.767 188.747 C 116.256 191.025,114.470 194.798,113.779 195.063 C 113.460 195.186,113.200 195.729,113.200 196.271 C 113.200 196.814,112.924 197.533,112.586 197.871 C 112.249 198.208,112.075 198.805,112.199 199.198 C 112.324 199.590,112.035 200.572,111.559 201.380 C 110.807 202.654,110.760 202.978,111.206 203.812 C 111.660 204.660,111.620 204.858,110.866 205.487 C 110.072 206.150,110.039 206.383,110.398 208.800 C 111.038 213.109,111.019 213.184,109.338 213.121 C 108.277 213.081,107.684 213.304,107.174 213.933 C 106.788 214.410,106.214 214.800,105.898 214.800 C 104.620 214.800,103.979 216.159,104.342 218.101 C 104.724 220.145,104.559 220.600,103.434 220.600 C 102.612 220.600,101.021 222.987,101.417 223.628 C 101.630 223.973,103.971 225.118,105.745 225.746 C 106.286 225.937,106.425 226.255,106.251 226.905 C 106.119 227.397,106.008 228.025,106.005 228.300 C 106.002 228.575,105.578 228.800,105.062 228.800 C 104.546 228.800,103.798 229.160,103.400 229.600 C 102.545 230.544,101.270 230.648,100.945 229.800 C 100.316 228.163,97.348 230.543,97.796 232.325 C 97.928 232.852,97.810 233.547,97.532 233.881 C 97.115 234.385,97.212 234.619,98.115 235.277 C 98.712 235.711,99.200 236.412,99.200 236.833 C 99.200 238.154,100.860 237.748,102.476 236.030 C 103.508 234.933,104.185 234.523,104.730 234.666 C 105.159 234.778,105.628 234.679,105.772 234.445 C 105.932 234.186,106.728 234.115,107.812 234.264 C 108.823 234.402,109.807 234.330,110.094 234.095 C 110.372 233.869,111.518 233.685,112.640 233.688 C 114.968 233.693,116.398 233.085,116.405 232.086 C 116.407 231.709,116.841 230.646,117.368 229.725 C 117.895 228.803,118.455 227.459,118.614 226.738 C 118.772 226.016,119.044 225.150,119.217 224.813 C 119.391 224.476,119.836 223.480,120.207 222.600 C 121.496 219.541,123.775 214.999,124.086 214.867 C 124.259 214.793,124.400 214.543,124.400 214.311 C 124.400 214.078,124.715 213.658,125.100 213.376 C 125.485 213.094,125.841 212.264,125.891 211.532 C 125.941 210.799,126.016 209.750,126.058 209.200 C 126.099 208.650,126.616 207.467,127.206 206.570 C 127.795 205.674,128.403 204.444,128.555 203.836 C 128.885 202.523,130.790 200.630,131.284 201.124 C 131.719 201.559,131.095 203.257,130.242 203.965 C 129.889 204.258,129.600 205.025,129.600 205.668 C 129.600 206.312,129.240 207.584,128.800 208.494 C 128.360 209.405,128.000 210.391,128.000 210.685 C 128.000 211.747,132.614 212.760,137.900 212.860 C 141.064 212.919,141.200 212.960,141.200 213.847 C 141.200 215.699,142.689 215.838,144.232 214.128 C 145.924 212.253,145.578 212.600,149.255 209.104 C 152.078 206.421,155.600 201.861,155.600 200.889 C 155.600 200.662,155.939 199.784,156.353 198.938 C 156.767 198.092,157.487 196.545,157.953 195.500 C 158.419 194.455,159.141 192.835,159.558 191.900 C 162.315 185.720,163.013 183.797,163.616 180.712 C 164.000 178.752,164.029 177.657,163.725 176.666 C 163.464 175.816,163.446 175.060,163.678 174.646 C 164.091 173.908,163.752 172.400,163.173 172.400 C 162.968 172.400,162.800 171.882,162.800 171.249 C 162.800 169.123,160.480 164.800,159.339 164.800 C 159.058 164.800,158.649 164.464,158.429 164.054 C 158.067 163.378,156.801 162.665,152.273 160.585 C 150.145 159.607,150.442 159.204,146.515 168.400 C 146.186 169.170,145.576 170.520,145.160 171.400 C 144.042 173.767,144.009 174.970,145.061 175.121 C 146.976 175.397,147.379 178.689,145.879 181.800 C 145.348 182.900,144.599 184.520,144.214 185.400 C 140.302 194.349,139.119 196.000,136.620 196.000 C 132.563 196.000,132.420 196.748,139.634 180.331 C 142.953 172.779,145.896 165.790,146.174 164.800 C 146.452 163.810,147.061 162.062,147.528 160.916 C 148.674 158.099,148.199 157.600,144.371 157.600 C 141.841 157.600,141.600 157.528,141.600 156.777 C 141.600 156.140,140.900 155.633,138.500 154.531 C 132.997 152.003,133.351 151.952,131.735 155.518 M137.769 155.024 L 140.769 156.448 139.930 158.524 C 138.633 161.728,138.562 162.400,139.520 162.400 C 140.114 162.400,140.516 161.922,141.008 160.635 C 141.681 158.874,141.688 158.869,143.881 158.735 C 148.191 158.471,148.320 158.025,136.108 185.600 C 132.409 193.951,132.390 194.014,133.008 195.485 C 133.622 196.944,135.047 197.392,137.777 196.983 L 139.593 196.710 142.686 190.655 C 146.880 182.442,147.976 179.985,147.989 178.760 C 148.008 176.944,147.161 175.200,145.956 174.577 C 144.625 173.889,144.386 174.816,148.012 166.600 C 150.887 160.083,150.527 160.325,154.208 162.431 C 159.706 165.577,161.600 167.801,161.600 171.111 C 161.600 172.066,161.850 172.910,162.225 173.221 C 162.791 173.690,162.791 173.773,162.228 174.088 C 161.669 174.401,161.674 174.541,162.278 175.464 C 164.811 179.329,156.115 201.175,149.482 207.609 C 148.117 208.934,146.068 210.925,144.929 212.036 C 143.789 213.146,142.709 213.997,142.529 213.927 C 142.214 213.805,142.149 213.613,142.046 212.500 C 142.014 212.149,141.076 211.994,138.900 211.979 C 135.345 211.955,129.769 211.129,129.179 210.539 C 128.799 210.159,129.366 208.583,131.605 203.800 C 132.397 202.108,133.269 198.736,132.988 198.455 C 132.799 198.265,130.332 200.035,128.719 201.519 C 128.125 202.065,127.533 202.995,127.403 203.585 C 127.274 204.174,126.635 205.240,125.984 205.953 C 124.751 207.303,124.503 208.169,125.222 208.613 C 125.501 208.786,125.426 209.205,125.001 209.855 C 124.638 210.408,124.466 211.179,124.606 211.620 C 124.769 212.134,124.639 212.487,124.228 212.645 C 123.882 212.777,123.600 213.145,123.600 213.462 C 123.600 213.779,122.987 214.996,122.239 216.167 C 120.523 218.848,118.000 224.549,118.000 225.743 C 118.000 226.240,117.736 226.996,117.413 227.424 C 117.090 227.851,116.820 228.493,116.813 228.851 C 116.806 229.209,116.530 229.726,116.200 230.000 C 115.870 230.274,115.600 230.914,115.600 231.422 C 115.600 232.476,114.802 232.840,112.529 232.826 C 111.688 232.821,110.171 232.919,109.158 233.044 L 107.315 233.271 107.094 230.536 C 106.973 229.031,107.026 227.615,107.212 227.388 C 108.079 226.336,107.488 224.347,105.937 223.102 C 104.512 221.956,104.445 221.813,105.032 221.165 C 105.531 220.613,105.607 219.993,105.387 218.237 C 105.057 215.591,105.707 214.997,107.442 216.362 C 108.899 217.508,109.332 217.426,110.597 215.769 C 111.779 214.218,111.797 214.100,111.510 209.500 C 111.356 207.038,111.430 206.400,111.868 206.400 C 112.835 206.400,113.324 204.400,112.563 203.559 C 111.888 202.814,112.035 201.600,112.800 201.600 C 113.034 201.600,113.329 201.870,113.455 202.200 C 113.689 202.810,114.800 203.053,114.800 202.494 C 114.800 202.326,114.429 201.496,113.975 200.650 C 113.056 198.935,113.036 199.020,115.581 194.000 C 116.195 192.790,117.021 190.900,117.417 189.800 C 117.813 188.700,118.274 187.617,118.441 187.393 C 118.608 187.169,121.835 179.969,125.613 171.393 C 133.565 153.344,133.441 153.600,134.195 153.600 C 134.511 153.600,136.119 154.241,137.769 155.024 M148.800 168.760 C 148.800 169.734,151.092 171.212,151.619 170.577 C 152.086 170.015,152.052 169.858,151.381 169.461 C 150.290 168.817,148.800 168.412,148.800 168.760 M153.083 170.129 C 152.657 171.239,153.729 172.123,155.129 171.816 C 156.529 171.508,157.000 170.005,155.700 169.995 C 155.315 169.992,154.620 169.887,154.155 169.762 C 153.615 169.617,153.228 169.750,153.083 170.129 M156.800 171.800 C 156.800 172.593,156.976 172.825,157.500 172.724 C 157.885 172.650,158.200 172.234,158.200 171.800 C 158.200 171.366,157.885 170.950,157.500 170.876 C 156.976 170.775,156.800 171.007,156.800 171.800 M178.400 175.389 C 174.417 176.303,172.410 177.476,169.493 180.591 C 167.778 182.423,165.200 187.250,165.200 188.630 C 165.200 189.138,165.010 189.670,164.777 189.814 C 164.232 190.151,162.648 193.680,161.999 196.000 C 161.723 196.990,161.228 198.430,160.901 199.200 C 160.573 199.970,160.038 201.230,159.711 202.000 C 159.384 202.770,158.794 204.120,158.400 205.000 C 157.490 207.032,156.888 208.392,153.529 216.000 C 152.024 219.410,150.458 222.656,150.049 223.212 C 149.007 224.632,147.600 227.459,147.600 228.134 C 147.600 228.445,147.123 229.552,146.540 230.595 C 144.876 233.573,143.933 237.579,144.637 238.686 C 144.947 239.173,145.200 240.294,145.200 241.176 C 145.200 245.133,149.166 250.668,153.687 253.019 C 156.910 254.695,158.318 254.140,158.986 250.928 C 159.132 250.228,159.510 249.441,159.826 249.179 C 160.142 248.917,160.400 248.476,160.400 248.200 C 160.400 247.924,160.684 247.462,161.031 247.174 C 162.137 246.257,163.721 242.667,163.668 241.201 C 163.609 239.581,162.583 238.550,161.733 239.256 C 160.822 240.012,161.098 238.775,162.400 236.265 C 163.060 234.993,163.600 233.773,163.600 233.555 C 163.600 233.336,164.476 231.322,165.547 229.078 C 166.618 226.835,167.986 223.740,168.588 222.200 C 169.189 220.660,169.843 219.229,170.041 219.020 C 170.238 218.811,170.400 218.299,170.400 217.882 C 170.400 217.465,170.729 216.646,171.132 216.062 C 172.298 214.369,173.680 210.556,173.680 209.030 C 173.680 208.032,173.887 207.563,174.400 207.400 C 175.081 207.184,175.989 205.574,178.007 201.000 C 178.492 199.900,179.319 198.050,179.845 196.888 C 180.370 195.727,180.800 194.602,180.800 194.388 C 180.800 194.175,181.194 194.000,181.675 194.000 C 182.577 194.000,185.192 192.437,185.197 191.896 C 185.204 191.181,187.002 187.718,187.845 186.798 C 189.010 185.525,190.800 180.807,190.800 179.010 C 190.800 177.587,190.746 177.544,187.000 175.986 C 186.560 175.803,185.137 175.535,183.837 175.390 C 182.538 175.245,181.278 175.072,181.037 175.005 C 180.797 174.938,179.610 175.111,178.400 175.389 M185.520 176.606 C 186.906 176.933,188.559 177.468,189.193 177.797 L 190.347 178.393 189.332 181.497 C 188.769 183.217,187.913 184.957,187.412 185.400 C 186.915 185.840,186.395 186.650,186.257 187.200 C 185.821 188.943,185.350 189.423,184.648 188.840 C 184.311 188.560,183.847 188.447,183.618 188.589 C 182.960 188.996,183.130 190.318,183.900 190.779 C 184.540 191.162,184.503 191.284,183.478 192.199 C 182.146 193.387,181.200 193.491,181.200 192.449 C 181.200 191.134,180.133 190.604,179.577 191.643 C 179.185 192.376,179.212 192.619,179.727 192.996 C 180.284 193.404,180.198 193.811,178.962 196.628 C 178.195 198.372,176.923 201.287,176.135 203.105 C 175.033 205.645,174.481 206.465,173.750 206.648 C 172.917 206.857,172.800 207.120,172.800 208.788 C 172.800 210.482,171.552 213.904,170.025 216.400 C 169.823 216.730,169.566 217.301,169.453 217.669 C 169.321 218.102,168.974 218.266,168.470 218.134 C 167.426 217.861,166.893 218.787,167.739 219.405 C 168.103 219.671,168.400 220.073,168.400 220.300 C 168.400 220.978,164.404 229.733,163.779 230.423 C 163.460 230.775,163.199 231.409,163.197 231.831 C 163.195 232.254,162.490 234.039,161.630 235.798 L 160.066 238.995 160.819 240.598 C 161.383 241.800,161.574 241.981,161.585 241.324 C 161.593 240.842,161.775 240.339,161.988 240.207 C 162.589 239.836,162.955 241.953,162.459 242.929 C 161.417 244.979,160.125 247.098,159.100 248.438 C 158.495 249.229,158.000 250.275,158.000 250.764 C 158.000 253.323,156.541 253.792,153.844 252.100 C 149.329 249.268,146.000 244.402,146.000 240.635 C 146.000 239.714,145.785 238.745,145.522 238.482 C 144.980 237.940,146.116 232.685,147.010 231.600 C 147.819 230.617,148.785 228.518,148.541 228.274 C 148.416 228.149,148.946 227.001,149.718 225.723 C 150.491 224.446,152.869 219.440,155.004 214.600 C 157.138 209.760,159.204 205.080,159.595 204.200 C 162.306 198.090,163.182 195.903,163.415 194.663 C 163.560 193.885,164.292 192.299,165.040 191.138 C 165.827 189.916,166.400 188.514,166.400 187.808 C 166.400 186.461,168.422 183.138,170.752 180.658 C 174.610 176.549,179.541 175.196,185.520 176.606 M192.829 180.654 C 192.373 181.234,192.000 182.196,192.000 182.792 C 192.000 183.388,191.666 184.178,191.258 184.548 C 190.850 184.917,190.093 186.070,189.576 187.110 C 189.059 188.149,188.301 189.495,187.891 190.099 C 186.725 191.821,187.110 193.258,188.983 194.172 C 189.853 194.597,190.343 195.019,190.072 195.109 C 189.171 195.410,188.028 198.150,188.473 198.944 C 188.693 199.338,188.812 199.692,188.737 199.730 C 188.661 199.769,188.071 200.071,187.425 200.401 C 186.660 200.793,186.131 201.462,185.909 202.320 C 185.721 203.045,185.305 203.738,184.984 203.862 C 184.663 203.985,184.400 204.260,184.400 204.474 C 184.400 204.687,183.860 205.402,183.200 206.062 C 182.540 206.722,182.000 207.538,182.000 207.875 C 182.000 208.357,181.706 208.434,180.631 208.232 C 178.812 207.891,178.656 208.271,179.211 211.707 C 179.789 215.292,179.239 219.017,178.002 219.883 C 177.439 220.278,177.200 220.897,177.200 221.961 C 177.200 222.940,176.932 223.719,176.442 224.162 C 175.689 224.843,175.354 225.924,174.939 229.000 C 174.820 229.880,174.393 230.870,173.990 231.200 C 173.586 231.530,172.466 233.600,171.501 235.800 C 169.945 239.348,169.599 239.849,168.438 240.232 C 166.930 240.729,164.452 243.641,164.119 245.307 C 163.995 245.924,163.563 246.661,163.158 246.945 C 162.327 247.526,160.324 252.781,160.249 254.575 C 160.200 255.749,160.984 256.354,164.200 257.626 C 167.468 258.918,173.483 258.642,176.845 257.047 C 180.617 255.257,186.230 248.220,185.469 246.236 C 185.370 245.977,185.628 245.066,186.044 244.211 C 186.460 243.356,186.800 242.497,186.800 242.301 C 186.800 242.105,187.317 241.192,187.949 240.272 C 189.012 238.724,190.618 235.524,192.802 230.600 C 193.290 229.500,194.119 227.650,194.645 226.488 C 195.170 225.327,195.600 224.144,195.600 223.859 C 195.600 223.575,196.155 222.318,196.833 221.066 C 198.686 217.644,201.089 211.906,202.639 207.200 C 203.400 204.890,204.203 202.640,204.425 202.200 C 206.427 198.217,206.779 192.708,205.234 189.541 C 204.555 188.150,204.000 186.734,204.000 186.395 C 204.000 185.573,199.493 181.640,197.250 180.504 C 194.923 179.326,193.845 179.362,192.829 180.654 M197.732 181.784 C 202.829 185.196,206.048 190.991,205.232 195.283 C 204.258 200.400,197.880 218.011,196.316 219.900 C 195.646 220.709,193.328 220.532,193.098 219.654 C 192.717 218.195,188.800 218.199,188.800 219.659 C 188.800 220.194,190.528 220.754,192.480 220.851 C 193.426 220.899,194.417 221.013,194.683 221.105 C 195.770 221.482,194.447 224.894,188.144 237.961 C 186.085 242.230,184.400 246.064,184.400 246.481 C 184.400 249.705,178.691 255.703,174.427 256.960 C 170.809 258.026,163.359 257.226,161.346 255.555 C 160.665 254.990,162.470 249.328,163.693 248.194 C 164.209 247.716,164.878 246.576,165.179 245.662 C 165.775 243.859,166.040 243.684,166.796 244.596 C 167.068 244.923,167.450 245.093,167.645 244.972 C 168.229 244.611,168.046 243.193,167.383 242.938 C 166.836 242.728,166.844 242.615,167.445 241.951 C 168.284 241.023,169.552 240.982,170.195 241.861 C 170.882 242.801,171.735 242.205,171.117 241.216 C 170.513 240.248,173.326 233.405,174.700 232.500 C 175.283 232.117,175.600 231.508,175.600 230.774 C 175.600 228.525,176.455 225.599,177.234 225.182 C 177.784 224.887,178.000 224.340,178.000 223.240 C 178.000 222.328,178.315 221.308,178.778 220.719 C 180.321 218.757,180.854 212.996,179.796 209.700 C 179.398 208.461,180.391 208.508,181.927 209.800 C 183.790 211.368,185.097 211.074,183.813 209.376 C 182.884 208.149,183.086 207.357,184.795 205.517 C 185.673 204.573,186.671 203.215,187.014 202.500 C 187.382 201.734,187.938 201.200,188.370 201.200 C 189.454 201.200,190.120 200.199,189.755 199.119 C 189.352 197.930,189.487 197.320,190.441 196.030 C 191.104 195.134,191.153 194.784,190.771 193.688 C 190.360 192.511,189.200 191.855,189.200 192.800 C 189.200 193.020,189.020 193.200,188.800 193.200 C 187.551 193.200,188.849 189.629,191.437 185.947 C 192.187 184.881,192.800 183.821,192.800 183.591 C 192.800 180.504,194.752 179.789,197.732 181.784 M194.414 187.574 C 193.777 188.764,193.919 189.600,194.757 189.600 C 195.550 189.600,196.000 188.864,196.000 187.567 C 196.000 186.572,194.948 186.576,194.414 187.574 M220.472 191.714 C 220.237 191.996,219.839 193.391,219.588 194.814 C 219.120 197.459,218.623 200.008,217.951 203.200 C 217.466 205.504,216.028 214.450,215.765 216.800 C 215.654 217.790,215.392 219.578,215.182 220.773 C 214.972 221.969,214.800 223.792,214.800 224.825 C 214.800 225.857,214.535 227.336,214.212 228.111 C 213.280 230.341,211.842 240.961,211.817 245.800 C 211.804 248.250,211.645 249.141,211.140 249.600 C 210.462 250.215,209.438 256.593,209.039 262.680 C 208.935 264.264,208.669 265.898,208.448 266.311 C 207.808 267.507,207.109 274.339,207.469 275.876 C 207.680 276.773,209.177 277.598,215.664 280.393 C 219.826 282.186,219.912 282.119,220.593 276.600 C 220.620 276.380,220.763 275.750,220.910 275.200 C 221.058 274.650,221.271 273.300,221.384 272.200 C 221.497 271.100,221.702 269.517,221.840 268.682 C 222.021 267.591,221.916 266.971,221.469 266.476 C 220.906 265.854,220.906 265.654,221.467 264.394 C 222.614 261.814,222.736 261.406,222.961 259.400 C 223.407 255.414,224.743 246.815,224.975 246.440 C 225.106 246.228,225.231 245.098,225.253 243.928 C 225.276 242.757,225.421 241.620,225.578 241.400 C 225.734 241.180,226.082 239.290,226.351 237.200 C 226.620 235.110,227.008 232.500,227.213 231.400 C 227.419 230.300,227.677 228.770,227.787 228.000 C 227.897 227.230,228.171 225.520,228.397 224.200 C 228.622 222.880,228.975 220.720,229.181 219.400 C 229.387 218.080,229.831 215.470,230.168 213.600 C 230.505 211.730,230.868 209.570,230.974 208.800 C 231.080 208.030,231.463 205.870,231.825 204.000 C 233.375 196.002,233.473 196.584,230.308 195.056 C 229.047 194.447,227.924 193.800,227.811 193.618 C 226.834 192.037,221.378 190.621,220.472 191.714 M215.235 194.681 C 214.538 196.176,213.795 197.713,213.584 198.095 C 213.373 198.477,213.200 199.062,213.200 199.395 C 213.200 199.728,213.020 200.000,212.800 200.000 C 212.580 200.000,212.400 200.242,212.400 200.539 C 212.400 200.835,212.150 201.600,211.844 202.239 C 211.538 202.877,210.979 204.120,210.602 205.000 C 209.798 206.877,208.872 208.954,207.481 212.000 C 204.598 218.311,201.600 225.457,201.600 226.018 C 201.600 226.270,201.271 226.954,200.870 227.538 C 200.468 228.122,199.898 229.230,199.603 230.000 C 199.308 230.770,198.932 231.580,198.769 231.800 C 198.605 232.020,198.345 232.877,198.190 233.704 C 198.036 234.532,197.756 235.304,197.568 235.420 C 197.238 235.624,195.615 238.903,194.213 242.200 C 193.839 243.080,193.391 244.076,193.217 244.413 C 193.044 244.750,192.777 245.593,192.625 246.285 C 192.473 246.978,192.090 247.759,191.774 248.021 C 191.458 248.283,191.200 248.660,191.200 248.858 C 191.200 249.055,190.500 250.718,189.645 252.552 C 188.790 254.386,187.961 256.317,187.802 256.843 C 187.644 257.370,186.964 258.935,186.291 260.323 L 185.068 262.846 185.917 263.694 L 186.766 264.543 185.883 264.981 C 184.945 265.446,184.562 266.996,184.976 268.648 C 185.233 269.669,186.900 270.010,187.431 269.149 C 187.599 268.878,187.919 269.196,188.236 269.949 C 188.852 271.415,190.347 271.690,190.684 270.400 C 190.936 269.436,191.118 269.421,192.731 270.225 C 194.449 271.083,194.451 271.093,193.199 273.800 C 192.052 276.280,192.153 277.200,193.572 277.200 C 194.196 277.200,196.800 274.004,196.800 273.238 C 196.800 273.052,197.314 272.797,197.943 272.671 C 198.762 272.508,199.233 272.069,199.606 271.121 C 199.893 270.395,200.525 269.350,201.012 268.800 C 201.498 268.250,201.993 267.159,202.111 266.375 C 202.318 264.997,202.804 263.782,205.249 258.525 C 205.882 257.164,206.400 255.954,206.400 255.837 C 206.400 255.720,206.854 254.631,207.409 253.419 C 207.963 252.206,208.518 250.625,208.641 249.907 C 208.764 249.188,209.019 248.240,209.208 247.800 C 209.622 246.832,210.008 244.381,210.843 237.400 C 211.080 235.420,211.455 232.720,211.678 231.400 C 211.900 230.080,212.140 228.640,212.210 228.200 C 212.327 227.470,212.745 225.285,213.589 221.000 C 213.848 219.687,214.752 214.771,215.428 211.000 C 216.289 206.201,217.994 193.975,217.909 193.203 C 217.690 191.206,216.565 191.828,215.235 194.681 M224.000 192.576 C 224.550 192.887,226.592 193.919,228.538 194.870 L 232.076 196.600 231.870 198.000 C 231.756 198.770,230.301 207.500,228.635 217.400 C 226.969 227.300,225.155 238.370,224.603 242.000 C 224.051 245.630,223.133 251.654,222.563 255.386 C 221.828 260.198,221.246 262.725,220.563 264.073 C 219.444 266.282,219.375 266.800,220.200 266.800 C 221.007 266.800,220.973 268.196,220.006 274.772 C 219.007 281.561,219.420 281.311,213.535 278.694 L 208.600 276.499 208.636 272.052 C 208.664 268.504,208.805 267.457,209.336 266.871 C 209.808 266.349,210.000 265.403,210.000 263.591 C 210.000 259.794,211.197 251.492,211.842 250.814 C 212.328 250.305,212.400 250.343,212.400 251.114 C 212.400 251.635,212.647 252.000,213.000 252.000 C 213.373 252.000,213.600 251.622,213.600 251.000 C 213.600 249.981,213.703 249.927,215.791 249.846 C 218.241 249.751,217.555 248.400,215.056 248.400 C 213.214 248.400,212.813 248.271,212.603 247.610 C 212.156 246.200,213.939 232.133,214.988 228.800 C 215.299 227.810,215.758 224.930,216.007 222.400 C 216.638 215.985,218.218 206.186,219.824 198.721 C 220.141 197.248,220.400 195.594,220.400 195.047 C 220.400 192.273,221.782 191.324,224.000 192.576 M200.498 194.500 C 199.891 195.258,199.498 196.800,199.911 196.800 C 200.492 196.800,201.600 195.401,201.600 194.669 C 201.600 193.879,201.061 193.796,200.498 194.500 M216.671 196.912 C 216.536 198.513,215.784 203.508,215.001 208.012 C 213.598 216.079,213.377 217.273,211.438 227.200 C 210.901 229.950,210.254 234.270,210.001 236.800 C 209.198 244.826,208.180 248.791,205.124 255.800 C 203.589 259.320,202.015 263.310,201.627 264.666 C 201.238 266.023,200.353 267.989,199.660 269.035 C 198.967 270.081,198.400 271.075,198.400 271.243 C 198.400 272.004,195.783 271.779,195.120 270.962 C 193.905 269.466,190.917 268.570,189.978 269.420 C 189.226 270.101,189.200 270.088,189.200 269.049 C 189.200 267.692,188.212 267.284,187.183 268.216 C 186.282 269.031,186.206 268.991,185.856 267.528 C 185.644 266.643,185.808 266.306,186.799 265.600 C 188.189 264.611,188.343 263.763,187.200 263.400 C 186.085 263.046,186.179 261.525,187.405 260.067 C 187.958 259.409,188.565 258.091,188.754 257.136 C 189.159 255.095,190.548 251.803,191.167 251.420 C 191.405 251.273,191.600 250.817,191.600 250.407 C 191.600 249.997,192.024 249.153,192.542 248.531 C 193.060 247.909,193.715 246.410,193.997 245.200 C 194.531 242.909,196.179 239.321,197.871 236.765 C 198.413 235.946,199.131 234.224,199.466 232.938 C 199.802 231.652,200.673 229.610,201.404 228.400 C 202.134 227.190,203.033 225.120,203.402 223.800 C 203.770 222.480,204.301 221.130,204.582 220.800 C 204.863 220.470,205.214 219.688,205.363 219.063 C 205.512 218.438,206.326 216.368,207.171 214.463 C 208.017 212.558,210.290 207.400,212.223 203.000 C 216.788 192.608,217.067 192.225,216.671 196.912 M121.606 197.300 C 121.609 197.575,121.767 198.044,121.956 198.343 C 122.396 199.036,122.974 198.232,122.648 197.381 C 122.375 196.670,121.598 196.610,121.606 197.300 M241.046 201.386 C 240.691 201.928,240.400 202.472,240.400 202.595 C 240.400 202.717,239.680 204.361,238.800 206.248 C 237.920 208.135,237.200 209.755,237.200 209.848 C 237.200 209.941,236.480 211.561,235.600 213.448 C 234.720 215.335,234.000 216.946,234.000 217.028 C 234.000 217.109,233.550 218.160,233.000 219.363 C 231.838 221.904,231.784 222.342,232.600 222.655 C 233.493 222.998,233.330 223.493,232.130 224.078 C 230.758 224.747,229.532 226.955,229.396 229.000 C 229.263 231.005,228.059 238.531,227.572 240.400 C 227.372 241.170,227.119 242.610,227.010 243.600 C 226.822 245.319,226.622 246.682,225.627 253.000 C 225.385 254.540,225.010 257.150,224.795 258.800 C 224.579 260.450,224.234 262.970,224.028 264.400 C 223.821 265.830,223.451 268.518,223.205 270.373 C 222.958 272.229,222.665 273.895,222.553 274.077 C 222.049 274.891,222.883 276.000,223.998 276.000 C 225.064 276.000,226.800 274.486,226.800 273.556 C 226.800 273.371,227.361 272.001,228.046 270.510 C 228.731 269.020,230.189 265.730,231.285 263.200 C 232.382 260.670,233.891 257.279,234.639 255.664 C 235.388 254.050,236.000 252.660,236.000 252.576 C 236.000 252.492,236.469 251.383,237.043 250.112 C 237.617 248.840,238.348 247.170,238.668 246.400 C 238.988 245.630,239.588 244.280,240.001 243.400 C 243.326 236.315,243.546 235.585,242.592 234.794 C 242.096 234.382,241.846 234.415,241.226 234.977 C 240.194 235.910,239.011 235.253,238.403 233.408 C 237.909 231.912,238.231 227.600,238.836 227.600 C 239.025 227.600,239.072 228.140,238.940 228.799 C 238.444 231.278,240.125 231.802,243.400 230.191 C 244.500 229.650,245.603 229.206,245.851 229.204 C 246.099 229.202,246.704 228.255,247.195 227.100 C 247.686 225.945,248.539 224.010,249.090 222.800 C 249.917 220.984,251.616 217.117,253.570 212.600 C 253.760 212.160,254.385 210.792,254.958 209.560 C 255.531 208.328,256.000 207.135,256.000 206.908 C 256.000 206.102,248.765 202.968,248.203 203.530 C 248.056 203.678,247.708 203.489,247.431 203.111 C 246.928 202.422,243.001 200.411,242.146 200.404 C 241.896 200.402,241.401 200.844,241.046 201.386 M246.091 202.972 C 246.251 203.208,246.289 203.700,246.175 204.066 C 245.916 204.898,246.716 205.444,247.315 204.845 C 248.374 203.786,255.035 205.872,254.693 207.155 C 254.598 207.510,252.487 212.418,250.002 218.062 C 245.033 229.345,244.221 230.403,241.604 229.002 L 240.692 228.514 241.746 228.249 C 242.948 227.947,243.151 226.697,242.200 225.441 C 241.722 224.810,241.520 224.768,241.008 225.194 C 240.668 225.475,239.813 225.997,239.107 226.353 C 235.883 227.978,237.034 236.800,240.470 236.800 C 241.463 236.800,241.389 237.591,240.132 240.407 C 238.937 243.086,238.698 243.227,237.763 241.800 C 236.158 239.350,235.575 241.218,237.027 244.161 C 237.852 245.833,238.151 244.983,231.229 260.614 C 225.152 274.336,223.600 277.114,223.600 274.269 C 223.600 272.550,226.079 255.951,228.688 240.200 C 229.489 235.360,230.191 230.536,230.247 229.481 C 230.380 226.970,231.466 225.137,233.066 224.723 C 234.002 224.480,234.466 224.023,234.917 222.900 C 235.522 221.396,235.177 220.663,234.285 221.555 C 233.719 222.121,233.200 222.126,233.200 221.566 C 233.200 220.845,241.676 201.821,242.126 201.532 C 242.606 201.224,245.655 202.332,246.091 202.972 M198.815 202.582 C 198.156 203.376,198.675 204.202,199.436 203.570 C 200.059 203.053,200.202 202.000,199.649 202.000 C 199.456 202.000,199.080 202.262,198.815 202.582 M119.836 204.742 C 119.477 205.323,119.995 206.369,120.875 206.840 C 121.584 207.220,121.643 207.137,121.527 205.932 C 121.402 204.627,120.360 203.894,119.836 204.742 M118.000 207.424 C 118.000 208.004,118.173 208.340,118.400 208.200 C 118.620 208.064,118.800 207.603,118.800 207.176 C 118.800 206.749,118.620 206.400,118.400 206.400 C 118.180 206.400,118.000 206.861,118.000 207.424 M113.858 208.999 C 112.845 210.012,112.624 211.269,113.384 211.695 C 114.014 212.048,114.013 212.123,113.359 212.846 C 112.850 213.407,112.779 213.739,113.098 214.058 C 113.340 214.300,113.449 214.727,113.341 215.008 C 112.813 216.384,114.133 215.711,116.561 213.364 C 119.618 210.411,119.674 209.985,117.089 209.336 C 116.072 209.081,115.065 208.764,114.852 208.632 C 114.639 208.500,114.192 208.665,113.858 208.999 M116.505 210.100 C 116.997 210.375,117.476 210.646,117.568 210.702 C 117.824 210.856,115.903 212.818,115.041 213.282 C 114.399 213.628,114.314 213.572,114.486 212.914 C 114.598 212.486,114.447 211.806,114.151 211.401 C 113.119 209.990,114.723 209.104,116.505 210.100 M187.833 212.434 C 186.548 213.876,186.615 214.086,188.220 213.660 C 189.103 213.426,189.432 213.077,189.527 212.274 C 189.692 210.869,189.185 210.917,187.833 212.434 M181.588 212.778 C 182.018 213.581,182.800 214.239,182.800 213.797 C 182.800 213.248,181.947 212.000,181.572 212.000 C 181.311 212.000,181.316 212.270,181.588 212.778 M184.210 214.381 C 183.433 215.883,183.537 217.800,184.395 217.800 C 184.804 217.800,185.079 217.176,185.276 215.801 C 185.626 213.352,185.103 212.654,184.210 214.381 M109.828 214.445 C 110.220 215.079,109.134 215.643,108.513 215.128 C 108.231 214.894,108.000 214.544,108.000 214.351 C 108.000 213.842,109.503 213.919,109.828 214.445 M265.499 214.568 C 260.770 215.935,254.400 222.530,254.400 226.060 C 254.400 226.517,253.957 227.726,253.416 228.746 C 251.987 231.441,247.600 240.841,247.600 241.210 C 247.600 241.383,247.261 242.216,246.847 243.062 C 245.897 245.004,244.391 248.353,243.998 249.400 C 243.833 249.840,243.114 251.460,242.399 253.000 C 237.516 263.527,235.559 268.745,233.771 276.000 C 232.968 279.256,233.076 280.576,234.350 283.111 C 234.983 284.370,235.630 285.997,235.788 286.727 C 235.946 287.457,236.373 288.158,236.738 288.285 C 237.102 288.412,237.940 289.018,238.600 289.632 C 240.125 291.050,244.206 293.200,245.373 293.200 C 246.299 293.200,246.522 292.878,247.986 289.422 C 248.447 288.334,249.243 286.894,249.754 286.222 C 252.946 282.029,253.305 278.000,250.487 278.000 L 249.535 278.000 250.410 276.583 C 250.976 275.667,251.225 274.748,251.112 273.983 C 250.977 273.061,251.091 272.800,251.631 272.800 C 252.037 272.800,252.780 272.012,253.423 270.900 C 254.027 269.855,255.214 268.311,256.061 267.469 C 256.907 266.627,257.600 265.750,257.600 265.519 C 257.600 265.268,258.075 265.195,258.784 265.337 C 259.436 265.467,260.077 265.400,260.208 265.187 C 261.070 263.792,264.431 265.617,263.661 267.062 C 263.444 267.468,263.002 268.430,262.677 269.200 C 262.128 270.501,261.628 271.635,259.211 277.061 C 258.467 278.731,258.065 279.167,257.091 279.362 C 255.595 279.661,254.157 281.181,252.992 283.697 C 252.499 284.761,251.819 285.940,251.482 286.316 C 251.145 286.692,250.487 288.170,250.021 289.600 C 249.554 291.030,248.965 292.611,248.711 293.114 C 247.695 295.127,255.085 298.676,259.444 298.269 C 264.490 297.798,269.884 293.528,272.524 287.917 C 272.907 287.101,273.414 286.315,273.648 286.170 C 274.205 285.826,277.401 279.089,281.509 269.600 C 284.383 262.960,285.212 261.098,285.684 260.223 C 286.141 259.375,284.451 257.606,283.180 257.602 C 282.839 257.601,282.389 257.449,282.180 257.264 C 281.971 257.079,281.170 256.691,280.400 256.401 C 277.587 255.341,274.800 253.933,274.800 253.571 C 274.800 253.367,274.471 253.200,274.069 253.200 C 273.667 253.200,271.678 252.480,269.649 251.600 C 264.768 249.483,263.211 250.066,263.198 254.013 C 263.197 254.336,262.676 255.155,262.040 255.833 C 261.405 256.511,260.796 257.411,260.689 257.833 C 260.581 258.255,260.473 257.790,260.448 256.800 C 260.419 255.658,260.686 254.537,261.176 253.733 C 261.600 253.036,262.172 251.686,262.447 250.733 C 262.721 249.780,263.246 248.550,263.615 248.000 C 263.983 247.450,264.392 246.054,264.523 244.898 C 264.670 243.608,265.133 242.293,265.721 241.498 C 266.247 240.784,267.291 238.724,268.039 236.920 C 269.311 233.853,269.511 233.597,271.095 232.988 C 272.931 232.284,273.981 231.070,274.841 228.660 C 275.143 227.812,275.778 226.731,276.252 226.257 C 277.337 225.172,279.001 221.122,279.368 218.673 C 279.642 216.847,279.621 216.798,278.324 216.238 C 277.596 215.924,276.349 215.385,275.553 215.040 C 273.501 214.151,267.860 213.886,265.499 214.568 M276.200 216.261 C 277.300 216.611,278.364 217.049,278.565 217.234 C 279.220 217.837,276.732 224.438,275.700 224.835 C 275.142 225.049,274.793 225.526,274.782 226.090 C 274.742 228.081,273.854 229.397,273.076 228.619 C 272.515 228.058,272.262 228.017,271.789 228.409 C 271.000 229.064,271.045 229.868,271.900 230.380 C 272.548 230.768,272.529 230.860,271.656 231.600 C 270.472 232.602,270.137 232.602,269.600 231.600 C 269.100 230.665,268.000 230.528,268.000 231.400 C 268.000 231.730,268.180 232.000,268.400 232.000 C 269.040 232.000,268.869 233.024,267.849 235.288 C 267.325 236.450,266.518 238.271,266.055 239.336 C 265.579 240.431,264.885 241.357,264.458 241.469 C 263.835 241.632,263.668 242.155,263.503 244.459 C 263.341 246.719,263.141 247.366,262.452 247.849 C 261.856 248.266,261.600 248.870,261.600 249.860 C 261.600 250.637,261.267 251.697,260.861 252.214 C 260.454 252.731,259.887 254.520,259.602 256.190 C 259.316 257.859,258.897 259.340,258.670 259.480 C 258.093 259.837,256.000 257.219,256.000 256.139 C 256.000 253.474,254.572 254.725,254.217 257.700 C 253.907 260.293,254.254 260.602,255.338 258.699 L 256.076 257.403 256.620 258.986 C 257.099 260.381,258.497 261.966,259.271 261.991 C 259.419 261.996,260.008 261.047,260.578 259.881 C 261.148 258.716,262.151 257.175,262.807 256.457 C 263.463 255.738,264.000 254.793,264.000 254.355 C 264.000 253.689,264.941 251.404,265.449 250.835 C 265.798 250.445,273.600 254.164,273.600 254.720 C 273.600 255.390,272.468 256.368,271.671 256.387 C 271.028 256.403,269.756 257.600,270.383 257.600 C 270.625 257.600,271.909 257.052,273.237 256.381 C 275.674 255.151,276.923 255.101,277.350 256.215 C 277.474 256.537,278.076 256.800,278.687 256.800 C 279.750 256.801,284.800 258.932,284.800 259.381 C 284.800 259.812,276.030 279.559,274.387 282.826 C 268.135 295.261,262.461 299.122,254.406 296.423 C 250.218 295.020,249.495 294.587,249.768 293.644 C 249.871 293.290,250.256 291.937,250.624 290.638 C 250.992 289.339,251.695 287.899,252.187 287.438 C 252.679 286.977,253.302 285.928,253.570 285.106 C 254.144 283.350,254.623 282.955,255.400 283.600 C 255.711 283.858,256.153 283.953,256.382 283.811 C 257.026 283.413,256.878 282.484,256.100 282.043 C 255.479 281.690,255.468 281.580,256.000 281.066 C 257.123 279.981,258.431 279.833,258.675 280.764 C 258.795 281.224,259.142 281.600,259.447 281.600 C 260.092 281.600,260.181 280.741,259.596 280.156 C 259.323 279.883,260.157 277.543,262.156 272.976 L 265.121 266.200 264.260 265.263 C 262.925 263.809,262.187 263.544,260.926 264.064 C 259.468 264.665,258.917 264.557,257.093 263.311 C 255.265 262.062,254.788 262.373,255.760 264.178 L 256.485 265.524 254.294 268.106 C 253.090 269.526,252.032 270.903,251.945 271.166 C 251.857 271.429,251.472 271.690,251.089 271.746 C 249.912 271.919,249.399 272.675,249.982 273.378 C 250.601 274.125,250.233 275.876,249.219 277.000 C 248.532 277.762,248.530 277.875,249.188 279.400 C 249.831 280.893,249.897 280.938,250.172 280.078 C 250.577 278.816,251.413 279.218,251.346 280.643 C 251.290 281.831,248.439 287.138,247.388 288.010 C 247.065 288.278,246.800 288.996,246.800 289.605 C 246.800 290.213,246.451 291.136,246.025 291.656 L 245.249 292.600 243.092 291.486 C 241.906 290.874,240.187 289.674,239.271 288.821 C 238.356 287.967,237.470 287.208,237.303 287.134 C 236.491 286.775,234.237 280.546,234.310 278.864 C 234.481 274.932,242.091 253.333,243.643 252.374 C 244.271 251.985,246.040 252.439,246.274 253.049 C 246.591 253.874,249.524 254.561,250.231 253.975 C 251.613 252.827,249.558 251.600,246.254 251.600 C 243.620 251.600,244.139 249.913,251.084 235.889 C 253.348 231.318,255.200 227.080,255.200 226.470 C 255.200 225.816,256.003 224.144,257.164 222.381 C 261.651 215.570,267.816 213.588,276.200 216.261 M281.415 219.721 C 281.083 220.227,280.691 221.262,280.544 222.021 C 280.397 222.779,279.858 223.904,279.348 224.519 C 278.837 225.135,278.113 226.305,277.739 227.119 C 277.364 227.934,276.730 229.078,276.329 229.662 C 275.072 231.493,275.352 233.137,277.041 233.843 C 278.387 234.405,278.440 234.493,277.841 235.154 C 277.489 235.544,277.200 235.978,277.200 236.120 C 277.200 236.261,276.750 237.360,276.200 238.563 C 275.650 239.765,275.200 240.877,275.200 241.034 C 275.200 241.192,274.708 242.292,274.107 243.479 C 272.919 245.825,273.017 246.111,275.200 246.657 C 275.750 246.795,276.495 247.163,276.855 247.475 C 277.216 247.787,277.936 248.072,278.455 248.107 C 278.975 248.142,279.648 248.413,279.952 248.709 C 280.255 249.004,280.745 249.153,281.041 249.040 C 281.337 248.926,281.719 249.055,281.889 249.326 C 282.060 249.597,283.451 250.391,284.980 251.092 C 287.920 252.438,288.502 252.377,289.041 250.664 C 289.191 250.189,289.828 249.174,290.457 248.409 C 291.267 247.423,291.600 246.578,291.600 245.509 C 291.600 244.679,291.765 244.000,291.967 244.000 C 292.585 244.000,293.831 241.522,294.382 239.200 C 294.668 237.990,295.080 236.777,295.297 236.505 C 295.562 236.170,295.480 235.484,295.045 234.396 C 294.690 233.509,294.394 232.112,294.387 231.292 C 294.381 230.471,293.932 228.900,293.391 227.800 C 292.850 226.700,292.406 225.485,292.404 225.100 C 292.402 224.715,292.251 224.400,292.068 224.400 C 291.885 224.400,290.850 223.525,289.768 222.457 C 286.271 219.003,282.660 217.820,281.415 219.721 M220.083 219.470 C 219.689 219.629,219.676 219.809,220.028 220.234 C 220.679 221.018,220.211 221.939,218.910 222.436 C 217.839 222.845,217.827 222.880,218.576 223.430 C 220.016 224.487,220.758 224.130,221.752 221.900 C 222.910 219.302,222.390 218.545,220.083 219.470 M285.908 220.542 C 287.691 221.667,291.600 225.424,291.600 226.011 C 291.600 226.240,292.050 227.315,292.600 228.400 C 293.167 229.519,293.600 231.060,293.600 231.961 C 293.600 232.834,293.788 234.042,294.017 234.645 C 294.523 235.976,293.309 240.409,291.773 242.843 C 291.238 243.690,290.800 244.665,290.800 245.008 C 290.800 246.376,287.850 251.200,287.014 251.200 C 285.645 251.200,284.745 249.943,285.400 248.944 C 286.156 247.790,285.841 246.295,284.880 246.480 C 284.522 246.549,284.061 247.189,283.856 247.903 C 283.356 249.647,283.056 249.538,282.484 247.400 C 281.955 245.419,281.346 245.079,280.975 246.557 C 280.666 247.789,278.373 247.689,276.983 246.384 C 276.475 245.907,275.902 245.613,275.711 245.732 C 274.812 246.287,274.254 245.283,274.906 244.287 C 275.260 243.747,276.127 241.797,276.832 239.953 C 277.538 238.109,278.418 236.150,278.788 235.600 C 279.355 234.758,279.390 234.353,279.005 233.037 L 278.549 231.474 277.674 232.412 L 276.800 233.351 276.800 232.059 C 276.800 230.592,277.815 228.429,280.056 225.122 C 280.905 223.869,281.600 222.514,281.600 222.111 C 281.600 219.773,283.559 219.059,285.908 220.542 M103.658 223.939 C 102.720 224.172,102.373 223.093,103.120 222.265 C 103.779 221.535,103.807 221.548,104.010 222.656 C 104.154 223.439,104.042 223.844,103.658 223.939 M282.810 227.176 C 282.296 228.418,282.508 229.200,283.359 229.200 C 284.020 229.200,284.848 227.390,284.546 226.605 C 284.173 225.631,283.336 225.907,282.810 227.176 M242.000 226.800 C 242.000 227.020,241.629 227.200,241.176 227.200 C 240.723 227.200,240.464 227.020,240.600 226.800 C 240.736 226.580,241.107 226.400,241.424 226.400 C 241.741 226.400,242.000 226.580,242.000 226.800 M108.400 229.010 C 108.400 229.606,109.894 230.400,111.013 230.400 C 111.861 230.400,111.292 229.370,110.159 228.854 C 108.822 228.245,108.400 228.282,108.400 229.010 M240.800 229.824 C 240.800 230.141,240.620 230.400,240.400 230.400 C 240.180 230.400,240.000 230.029,240.000 229.576 C 240.000 229.123,240.180 228.864,240.400 229.000 C 240.620 229.136,240.800 229.507,240.800 229.824 M105.394 230.410 C 105.273 230.605,104.895 230.658,104.554 230.527 C 104.069 230.341,104.046 230.219,104.447 229.971 C 105.054 229.596,105.709 229.900,105.394 230.410 M102.400 231.398 C 105.084 231.757,106.044 232.219,105.742 233.006 C 105.416 233.858,104.542 233.738,103.848 232.747 C 102.996 231.530,101.862 232.036,102.161 233.500 C 102.327 234.311,102.130 234.889,101.412 235.700 C 100.169 237.104,99.842 237.090,100.132 235.642 C 100.332 234.640,100.258 234.512,99.582 234.689 C 98.735 234.910,98.424 233.792,99.254 233.515 C 99.581 233.406,99.559 233.124,99.179 232.514 C 98.737 231.807,98.739 231.556,99.189 231.014 C 99.486 230.655,99.835 230.529,99.965 230.733 C 100.094 230.936,101.190 231.236,102.400 231.398 M288.894 234.104 C 288.291 234.859,287.899 236.400,288.311 236.400 C 288.803 236.400,290.000 235.047,290.000 234.492 C 290.000 233.793,289.331 233.558,288.894 234.104 M150.096 237.595 C 149.446 238.635,149.468 239.200,150.157 239.200 C 150.729 239.200,151.200 238.373,151.200 237.367 C 151.200 236.558,150.676 236.666,150.096 237.595 M155.416 244.632 C 154.682 245.752,154.838 246.800,155.739 246.800 C 156.403 246.800,157.395 244.640,157.015 244.024 C 156.598 243.350,156.142 243.523,155.416 244.632 M363.829 248.229 C 362.975 249.082,362.917 256.068,363.758 256.765 C 364.124 257.069,365.748 257.189,368.458 257.114 L 372.600 257.000 372.713 252.550 C 372.844 247.340,373.121 247.614,367.729 247.605 C 365.282 247.601,364.299 247.759,363.829 248.229 M371.740 248.507 C 372.328 248.937,372.415 249.585,372.316 252.807 L 372.200 256.600 368.296 256.715 C 363.757 256.848,363.595 256.701,363.605 252.474 C 363.612 249.592,363.910 248.488,364.741 248.268 C 366.271 247.861,371.082 248.026,371.740 248.507 M212.279 256.313 C 211.400 257.283,211.800 260.772,212.687 259.884 C 213.388 259.183,213.842 256.197,213.299 255.861 C 213.083 255.728,212.624 255.931,212.279 256.313 M219.273 258.600 C 218.912 259.391,218.523 259.600,217.409 259.600 C 215.884 259.600,215.532 260.314,216.614 261.211 C 217.756 262.160,221.757 259.353,220.839 258.247 C 220.106 257.363,219.805 257.431,219.273 258.600 M272.800 258.846 C 272.800 259.302,273.011 259.596,273.275 259.508 C 274.016 259.261,274.100 258.524,273.417 258.262 C 272.985 258.096,272.800 258.271,272.800 258.846 M252.250 259.120 C 252.086 259.384,251.599 259.600,251.166 259.600 C 250.329 259.600,249.399 261.352,249.850 262.081 C 250.164 262.589,252.899 259.698,252.692 259.077 C 252.592 258.777,252.453 258.791,252.250 259.120 M262.993 261.212 C 262.557 261.917,263.502 262.658,264.242 262.191 C 264.583 261.976,264.893 261.620,264.931 261.400 C 265.030 260.828,263.331 260.664,262.993 261.212 M240.040 269.649 C 239.073 270.687,238.972 271.200,239.732 271.200 C 240.319 271.200,241.470 269.337,241.107 268.974 C 240.983 268.849,240.502 269.153,240.040 269.649 M195.597 273.100 C 195.596 273.265,195.237 273.940,194.800 274.600 C 193.950 275.883,193.751 275.507,194.390 273.826 C 194.745 272.893,195.604 272.377,195.597 273.100 M238.626 276.884 C 237.798 278.066,238.575 278.978,239.427 277.824 C 240.080 276.938,240.181 276.000,239.623 276.000 C 239.415 276.000,238.967 276.398,238.626 276.884 M244.254 283.403 C 243.348 284.309,243.375 286.102,244.292 285.925 C 245.173 285.756,245.925 283.765,245.332 283.172 C 245.034 282.874,244.715 282.942,244.254 283.403 " stroke="none" fill="#627804" fill-rule="evenodd"></path><path id="path4" d="M364.741 248.268 C 363.910 248.488,363.612 249.592,363.605 252.474 C 363.595 256.701,363.757 256.848,368.296 256.715 L 372.200 256.600 372.316 252.807 C 372.458 248.172,372.292 247.980,368.224 248.046 C 366.671 248.072,365.103 248.172,364.741 248.268 " stroke="none" fill="#e4eae4" fill-rule="evenodd"></path></g></svg>